<?xml version="1.0" encoding="utf-8"?>
<!-- Generator: Adobe Illustrator 28.1.0, SVG Export Plug-In . SVG Version: 6.00 Build 0)  -->
<svg version="1.1" id="Layer_1" xmlns="http://www.w3.org/2000/svg" xmlns:xlink="http://www.w3.org/1999/xlink" x="0px" y="0px"
	 viewBox="0 0 500 500" style="enable-background:new 0 0 500 500;" xml:space="preserve">
<style type="text/css">
	.st0{fill:#455A64;}
	.st1{fill:#5562F6;}
	.st2{opacity:0.45;fill:#FFFFFF;enable-background:new    ;}
	.st3{opacity:5.000000e-02;}
	.st4{fill:#EBEBEB;}
	.st5{fill:#FAFAFA;}
	.st6{fill:#E0E0E0;}
	.st7{opacity:0.3;enable-background:new    ;}
	.st8{opacity:0.6;}
	.st9{opacity:0.5;enable-background:new    ;}
	.st10{fill:#263238;}
	.st11{opacity:0.7;enable-background:new    ;}
	.st12{fill:#F0F0F0;}
	.st13{opacity:0.4;fill:#FFFFFF;enable-background:new    ;}
	.st14{opacity:0.1;enable-background:new    ;}
	.st15{fill:#FFFFFF;}
	.st16{fill:#E6E6E6;}
	.st17{opacity:0.5;fill:#FFFFFF;enable-background:new    ;}
	.st18{opacity:0.7;fill:#FFFFFF;enable-background:new    ;}
	.st19{opacity:0.3;fill:#FFFFFF;enable-background:new    ;}
	.st20{font-family:'Arial-BoldMT';}
	.st21{font-size:11.5018px;}
	.st22{fill:#FFA8A7;}
	.st23{fill:#B16668;}
	.st24{fill:#F28F8F;}
	.st25{fill:#37474F;}
	.st26{opacity:0.2;enable-background:new    ;}
	.st27{opacity:0.15;enable-background:new    ;}
</style>
<g id="freepik--Table--inject-2">
	<g id="freepik--table--inject-2_00000123436345762530149520000016608202294010974874_">
		<g id="freepik--table--inject-2">
			<path class="st0" d="M144.5,299.2c0-0.5-0.4-0.9-0.8-1.1c-1.2-0.6-2.7-0.6-4,0c-0.5,0.2-0.8,0.6-0.8,1.1l5.1,26.1l0,0
				c0,0.3,0.3,0.6,0.6,0.8c0.9,0.5,1.9,0.5,2.8,0c0.3-0.1,0.5-0.4,0.6-0.8l0,0L144.5,299.2z"/>
			<path class="st0" d="M72.2,299.2c0-0.5,0.4-0.9,0.8-1.1c1.3-0.6,2.7-0.6,4,0c0.5,0.2,0.8,0.6,0.8,1.1l-5.1,26.1l0,0
				c0,0.3-0.3,0.6-0.6,0.8c-0.9,0.5-1.9,0.5-2.8,0c-0.3-0.1-0.5-0.4-0.6-0.8l0,0L72.2,299.2z"/>
			<path class="st0" d="M105.2,303c0-0.5,0.4-0.9,0.8-1.1c1.2-0.6,2.7-0.6,4,0c0.5,0.2,0.8,0.6,0.8,1.1l-0.8,37.3l0,0
				c0,0.3-0.3,0.6-0.6,0.8c-0.9,0.4-1.9,0.4-2.8,0c-0.3-0.1-0.5-0.4-0.6-0.8l0,0L105.2,303z"/>
			<path class="st1" d="M57.9,279.2L57.9,279.2c0-7.4,4.9-14.8,14.7-20.4c19.6-11.3,51.3-11.3,70.8,0c9.8,5.6,14.6,13,14.6,20.4l0,0
				v4l0,0c-0.1,7.3-5,14.6-14.7,20.1c-19.5,11.3-51.3,11.3-70.8,0c-9.6-5.6-14.5-12.9-14.7-20.1l0,0L57.9,279.2z"/>
			<path class="st1" d="M143.4,258.8c19.5,11.3,19.5,29.6,0,40.9s-51.3,11.3-70.8,0s-19.6-29.6,0-40.9S123.9,247.5,143.4,258.8z"/>
			<path class="st2" d="M143.4,258.8c19.5,11.3,19.5,29.6,0,40.9s-51.3,11.3-70.8,0s-19.6-29.6,0-40.9S123.9,247.5,143.4,258.8z"/>
		</g>
		<g id="freepik--Pot--inject-2">
			<g class="st3">
				<path d="M97,274.4c-6.2,3.6-6.2,9.4,0,13s16.4,3.6,22.6,0s6.2-9.4,0-13S103.3,270.8,97,274.4z"/>
			</g>
			<path class="st4" d="M118.3,281.7c5.4-5.5,8.6-19.4,3.3-23.8h-27c-5.3,4.4-2.1,18.2,3.3,23.8l0.1,0.1l0.2,0.2
				c0.2,0.1,0.3,0.3,0.5,0.4l0.1,0.1l0.4,0.3c0.2,0.2,0.5,0.3,0.7,0.5c4.5,2.6,11.7,2.6,16.2,0l0,0c0.2-0.1,0.5-0.3,0.7-0.5l0.4-0.3
				l0.2-0.1c0.2-0.1,0.3-0.3,0.5-0.4l0.2-0.2C118.2,281.8,118.2,281.8,118.3,281.7z"/>
			<path class="st5" d="M97,256.2c-6.1,3.5-6.1,9.3,0,12.9s16.1,3.5,22.3,0s6.1-9.3,0-12.9S103.1,252.6,97,256.2z"/>
			<path class="st4" d="M101.3,258.7c-3.7,2.2-3.7,5.7,0,7.8c4.3,2.2,9.3,2.2,13.5,0c3.8-2.2,3.8-5.7,0-7.8
				C110.6,256.6,105.6,256.6,101.3,258.7z"/>
			<path class="st6" d="M114.9,262.4c-4.3-2.2-9.3-2.2-13.5,0c-0.9,0.5-1.7,1.2-2.2,2.1c0.6,0.8,1.3,1.5,2.2,2
				c4.3,2.2,9.3,2.2,13.5,0c0.9-0.5,1.7-1.2,2.2-2C116.6,263.6,115.8,262.9,114.9,262.4z"/>
			<path class="st1" d="M102.2,264.5c-1.9-1.9-3.6-4.1-4.9-6.5c-2.3-4-2.7-9.4-1.5-10s5.9,4.7,5.9,4.7c-0.4-2.3-0.6-4.5-0.5-6.8
				c0.2-3.6,1.1-6.8,2.1-7.4s3.3,3.8,4.3,7.1s1.6,5.9,1.6,5.9c0.4-2.5,1-5,1.8-7.5c1.2-3.4,2.3-4.1,3.1-3.8s1.4,1.9,1.6,6.4
				c0.1,2.2,0,4.3-0.2,6.5c0,0,1.7-1.9,3.5-3.6c2-2,2.9-2.2,3.5-1.9s0.8,3.4-2.4,9.2c-1.6,2.9-3.6,5.6-6,7.9
				C114,264.5,109.7,267.3,102.2,264.5z"/>
			<path class="st7" d="M102.2,264.5c-1.9-1.9-3.6-4.1-4.9-6.5c-2.3-4-2.7-9.4-1.5-10s5.9,4.7,5.9,4.7c-0.4-2.3-0.6-4.5-0.5-6.8
				c0.2-3.6,1.1-6.8,2.1-7.4s3.3,3.8,4.3,7.1s1.6,5.9,1.6,5.9c0.4-2.5,1-5,1.8-7.5c1.2-3.4,2.3-4.1,3.1-3.8s1.4,1.9,1.6,6.4
				c0.1,2.2,0,4.3-0.2,6.5c0,0,1.7-1.9,3.5-3.6c2-2,2.9-2.2,3.5-1.9s0.8,3.4-2.4,9.2c-1.6,2.9-3.6,5.6-6,7.9
				C114,264.5,109.7,267.3,102.2,264.5z"/>
		</g>
	</g>
</g>
<g id="freepik--Device--inject-2">
	<g id="freepik--device--inject-2">
		<path class="st1" d="M278.5,395.1l-37.6-21.8c-3.9-2.2-5.8-5.2-5.8-8.1s0-5.2,0-5.2l39-22c2.2-1.4,3.6-3.9,3.8-6.5v-46.4l65.7,38
			v46.4c-0.1,2.6-1.5,5-3.7,6.5l-33.2,19.1C298.9,399.6,286.3,399.6,278.5,395.1z"/>
		<g class="st8">
			<path d="M278.5,395.1l-37.6-21.8c-3.9-2.2-5.8-5.2-5.8-8.1s0-5.2,0-5.2l39-22c2.2-1.4,3.6-3.9,3.8-6.5v-46.4l65.7,38v46.4
				c-0.1,2.6-1.5,5-3.7,6.5l-33.2,19.1C298.9,399.6,286.3,399.6,278.5,395.1z"/>
		</g>
		<path class="st7" d="M327.8,377.7v5.3l12-6.9c2.2-1.4,3.6-3.8,3.7-6.5v-46.4L331,316c-0.2,3.2-0.5,6.5-0.8,9.7l8.8,5.1V367
			c-0.1,2.6-1.5,5-3.7,6.5L327.8,377.7z"/>
		<path class="st1" d="M339,366.9c-0.1,2.6-1.5,5-3.7,6.5l-28.7,16.5c-7.8,4.5-20.3,4.5-28.1,0l-37.6-21.7c-7.8-4.5-7.8-11.7,0-16.2
			l28.7-16.5c2.2-1.4,3.6-3.9,3.7-6.5v-36.2l65.7,38L339,366.9z"/>
		<path class="st7" d="M339,366.9c-0.1,2.6-1.5,5-3.7,6.5l-28.7,16.5c-7.8,4.5-20.3,4.5-28.1,0l-37.6-21.7c-7.8-4.5-7.8-11.7,0-16.2
			l28.7-16.5c2.2-1.4,3.6-3.9,3.7-6.5v-36.2l65.7,38L339,366.9z"/>
		<path class="st9" d="M262,339.9L262,339.9l7.6-4.4c2.2-1.4,3.6-3.9,3.7-6.5v-36.2l65.7,38V367c-0.1,2.6-1.5,5-3.7,6.5l-7.5,4.3
			L262,339.9z"/>
		<path class="st1" d="M235.1,360.1v5.2c0,2.9,2,5.9,5.8,8.1l37.6,21.7c4.1,2.2,8.7,3.3,13.4,3.3v-5.2c-4.7,0-9.3-1.1-13.4-3.3
			l-37.6-21.8C237.1,365.9,235.1,363,235.1,360.1z"/>
		<path class="st9" d="M235.1,360.1v5.2c0,2.9,2,5.9,5.8,8.1l37.6,21.7c4.1,2.2,8.7,3.3,13.4,3.3v-5.2c-4.7,0-9.3-1.1-13.4-3.3
			l-37.6-21.8C237.1,365.9,235.1,363,235.1,360.1z"/>
		<path class="st1" d="M444.5,412c-2.9,1.4-6.2,1.3-9.1-0.2l-254-146.7c-2.8-1.8-4.5-4.8-4.7-8.1V25.7c0.1-3.2,1.7-6.1,4.4-7.9
			c2.9-1.4,6.2-1.3,9.1,0.2l254,146.7c2.8,1.8,4.5,4.8,4.7,8.1V404C448.8,407.2,447.1,410.2,444.5,412z"/>
		<path class="st1" d="M435.4,411.8l-254-146.7c-2.8-1.8-4.5-4.8-4.7-8.1V25.7c0-3,2.1-4.2,4.7-2.7l254,146.7
			c2.8,1.8,4.5,4.8,4.7,8.1v231.3C440.1,412.1,438,413.3,435.4,411.8z"/>
		<path class="st9" d="M435.4,411.8l-254-146.7c-2.8-1.8-4.5-4.8-4.7-8.1V25.7c0-3,2.1-4.2,4.7-2.7l254,146.7
			c2.8,1.8,4.5,4.8,4.7,8.1v231.3C440.1,412.1,438,413.3,435.4,411.8z"/>
		<path class="st1" d="M436.1,417.1c2.7,1.2,5.7,1.1,8.4-0.2c2.6-1.8,4.3-4.7,4.4-7.9v-18.7l-8.8,5.1v18.7
			C440.1,416.8,438.4,418,436.1,417.1z"/>
		<path class="st9" d="M436.1,417.1c2.7,1.2,5.7,1.1,8.4-0.2c2.6-1.8,4.3-4.7,4.4-7.9v-18.7l-8.8,5.1v18.7
			C440.1,416.8,438.4,418,436.1,417.1z"/>
		<path class="st1" d="M440.1,395.4v18.7c0,3-2.1,4.2-4.7,2.7l-254-146.6c-2.8-1.8-4.5-4.8-4.7-8.1v-18.7L440.1,395.4z"/>
		<path class="st7" d="M440.1,395.3v18.7c0,3-2.1,4.2-4.7,2.7l-254-146.6c-2.8-1.8-4.5-4.8-4.7-8.1v-18.7L440.1,395.3z"/>
		<path class="st1" d="M431.3,371.9V180.7c-0.1-2-1.2-3.8-2.8-4.9L188.3,37.1c-1.5-0.9-2.8-0.2-2.8,1.6V230c0.1,2,1.2,3.8,2.8,4.9
			l240.2,138.7C430.1,374.4,431.3,373.7,431.3,371.9z"/>
		<path class="st10" d="M431.3,371.9V180.7c-0.1-2-1.2-3.8-2.8-4.9L188.3,37.1c-1.5-0.9-2.8-0.2-2.8,1.6V230c0.1,2,1.2,3.8,2.8,4.9
			l240.2,138.7C430.1,374.4,431.3,373.7,431.3,371.9z"/>
		<path class="st11" d="M438.7,173.1c0.8,1.4,1.3,3,1.4,4.6v217.6l8.8-5.1V172.7c-0.1-1.6-0.5-3.2-1.4-4.6L438.7,173.1z"/>
		<path class="st7" d="M176.8,24.9c0.3-2.4,2.3-3.3,4.6-1.9l254,146.7c1.4,0.9,2.5,2.1,3.3,3.5l8.8-5.1c-0.8-1.4-1.9-2.6-3.3-3.5
			L190.2,18c-2.8-1.5-6.2-1.6-9.1-0.2C178.7,19.5,177.1,22.1,176.8,24.9z"/>
	</g>
</g>
<g id="freepik--Window--inject-2">
	<g id="freepik--window--inject-2">
		<path class="st12" d="M407.2,390.1c0.6,0.3,1.2,0.5,1.8,0.5c0.9,0.1,1.9,0,2.7-0.5c1.3-0.9,2.1-2.4,2.2-4V207.6l-4.4,2.5v178.6
			c0,1.1-0.5,1.7-1.3,1.7C407.8,390.4,407.5,390.3,407.2,390.1z"/>
		<path class="st5" d="M165.8,248c0.1,1.6,1,3.1,2.3,4l239.1,138.1c1.3,0.7,2.3,0.1,2.3-1.4V195l-6.4-3.7c-1.3-0.7-3.4-12-4.7-12.8
			l-55.6-32.1c-1.3-0.7-4.3,7.6-5.6,6.9l-171.5-99L165.8,248L165.8,248z"/>
		<path class="st6" d="M166.8,56.1V248c0.1,1.3,0.7,2.4,1.8,3.1l239.1,138c0.1,0.1,0.3,0.2,0.5,0.2c0.2,0,0.2-0.6,0.2-0.6V195.6
			l-5.9-3.4c-0.9-0.5-1.5-2.4-2.8-7c-0.5-2-1.1-3.9-1.9-5.8l-55.1-31.8c-0.7,0.9-1.2,1.8-1.8,2.8c-1.5,2.6-2.3,4-3.6,4
			c-0.3,0-0.5-0.1-0.7-0.2L166.8,56.1 M342.3,147.3L342.3,147.3 M165.8,54.2l171.5,99c0.1,0,0.1,0,0.2,0.1c1.3,0,4-7,5.3-7
			c0.1,0,0.1,0,0.2,0l55.6,32.1c1.3,0.8,3.4,12,4.7,12.8l6.4,3.8v193.7c0,1.1-0.5,1.7-1.3,1.7c-0.4,0-0.7-0.1-1-0.3L168.1,252
			c-1.4-0.9-2.2-2.4-2.3-4V54.2z"/>
		<path class="st1" d="M411.7,202.1c1.3-0.9,2.1-2.4,2.2-4V180c-0.1-1.6-0.9-3.1-2.3-4L172.5,38c-2-1.3-4.7-0.7-6,1.3
			c-0.5,0.8-0.7,1.6-0.7,2.5V60c0.1,1.6,1,3.1,2.3,4l239.1,138.1C408.6,202.8,410.3,202.8,411.7,202.1z"/>
		<path class="st13" d="M165.8,41.4c0.2-1.2,1.1-1.7,2.3-1l239.1,138.1c0.7,0.4,1.2,1,1.6,1.8l4.4-2.5c-0.4-0.7-0.9-1.3-1.6-1.7
			L172.5,38c-2-1.3-4.7-0.7-6,1.3C166.1,40,165.8,40.7,165.8,41.4L165.8,41.4z"/>
		<path class="st14" d="M408.8,180.2c0.4,0.7,0.6,1.5,0.7,2.3v27.6l4.4-2.5V180c0-0.1,0-0.2,0-0.3c0-0.2,0-0.4-0.1-0.6
			c-0.1-0.5-0.3-1-0.6-1.4L408.8,180.2z"/>
		<path class="st1" d="M165.8,41.8v12.5l171.5,99c1.3,0.8,2.3,0.1,2.3-1.3v-4.7c0-1.5,1-2.1,2.3-1.3l56.5,32.6
			c1.4,0.9,2.2,2.4,2.3,4v4.7c0.1,1.6,1,3.1,2.3,4l6.4,3.8v-12.5c-0.1-1.6-1-3.1-2.3-4l-239.1-138C166.8,39.7,165.8,40.3,165.8,41.8
			z"/>
		<path class="st15" d="M176.7,49.6c-1.6-0.9-2.9-0.2-2.9,1.7c0.1,2.1,1.2,3.9,2.9,5.1c1.6,0.9,2.9,0.2,2.9-1.7
			C179.5,52.6,178.4,50.7,176.7,49.6z"/>
		<path class="st15" d="M187.2,55.7c-1.6-0.9-2.9-0.2-2.9,1.7c0.1,2.1,1.2,4,2.9,5.1c1.6,0.9,2.9,0.2,2.9-1.7
			C190.1,58.7,189,56.8,187.2,55.7z"/>
		<path class="st15" d="M197.8,61.8c-1.6-0.9-2.9-0.2-2.9,1.7c0.1,2.1,1.2,3.9,2.9,5.1c1.6,0.9,2.9,0.2,2.9-1.7
			C200.6,64.8,199.5,62.9,197.8,61.8z"/>
		<path class="st16" d="M165.8,54.2v15.1l243.8,140.8V195l-4.8-2.8c-1.3-0.7-1.7-1.9-2.3-4l-1.6-5.6c-0.5-2-1-3.3-2.3-4l-55.6-32.1
			c-1.3-0.7-2.3-0.8-3.3,0.8l-2,3.6c-0.7,1.3-1.1,2-2.4,1.3L165.8,54.2z"/>
		<polygon class="st6" points="409.5,195 409.5,210.1 413.9,207.6 413.9,192.5 		"/>
		<path class="st0" d="M398.8,196.1l3.7,2.1l-1.4-2.7c-0.1-0.2-0.1-0.5,0-0.7c0.1-0.1,0.3,0,0.4,0.2l2,3.8l0,0c0,0,0,0.1,0.1,0.1
			c0,0.1,0,0,0,0c0,0.1,0,0.1,0,0.2c0,0.1,0,0.1,0,0.2l0,0c0,0,0,0.1-0.1,0.1l0,0l-2,1.5c-0.1,0-0.1,0-0.2,0
			c-0.1-0.1-0.2-0.2-0.2-0.3c-0.1-0.2-0.1-0.5,0-0.6l1.4-1.1l-3.7-2.1c-0.2-0.1-0.3-0.4-0.3-0.6C398.5,196.1,398.7,196,398.8,196.1z
			"/>
		<path class="st0" d="M395.8,194.3l-3.7-2.1l1.4-1.1c0.1-0.2,0.1-0.4,0-0.6c-0.1-0.2-0.3-0.4-0.4-0.3l-2,1.5l0,0c0,0,0,0-0.1,0.1
			l0,0c0,0.1,0,0.1,0,0.2c0,0.1,0,0.1,0,0.2l0,0l0.1,0.1l0,0l2,3.8c0,0.1,0.1,0.2,0.2,0.2c0.1,0.1,0.2,0.1,0.2,0
			c0.1-0.2,0.1-0.4,0-0.6l-1.4-2.7l3.7,2.1c0.2,0.1,0.3,0,0.3-0.3C396,194.7,395.9,194.5,395.8,194.3z"/>
		<path class="st0" d="M383.8,183.8c0-0.2,0.2-0.2,0.3,0l0.5,1.2c0.9-0.1,1.9,0.7,2.6,2.2c0.9,1.9,0.9,4.2,0,5.1
			c-0.5,0.4-1.1,0.5-1.6,0.1c-0.7-0.5-1.3-1.2-1.6-2c-0.1-0.2-0.1-0.4,0-0.6c0.1-0.1,0.3,0,0.4,0.2c0.7,1.4,1.8,2.1,2.5,1.4
			c0.7-0.7,0.7-2.4,0-3.8c-0.5-1-1.2-1.6-1.8-1.7l0.4,0.9c0.1,0.2,0,0.5-0.1,0.4l-1.5-1c-0.1-0.1-0.2-0.2-0.2-0.4L383.8,183.8z"/>
		<path class="st0" d="M344.4,153.3l-1.3-2.8c-0.2-0.3-0.2-0.6,0-0.9c0.2-0.1,0.4,0,0.6,0.3l1.3,2.8l1.3-1.3c0.2-0.1,0.4,0,0.6,0.3
			c0.2,0.3,0.2,0.6,0,0.9l-1.3,1.3l1.3,2.8c0.2,0.3,0.2,0.6,0,0.9c-0.1,0.1-0.2,0.1-0.3,0c-0.1-0.1-0.2-0.2-0.3-0.4l-1.3-2.8
			l-1.3,1.3c-0.1,0.1-0.2,0.1-0.3,0c-0.1-0.1-0.2-0.2-0.3-0.4c-0.2-0.3-0.2-0.6,0-0.9L344.4,153.3z"/>
		<path class="st5" d="M378.9,187.2v-4.7c-0.1-1.6-1-3.1-2.3-4L181.2,65.7c-1.3-0.8-2.3-0.1-2.3,1.3v4.7c0.1,1.6,1,3.1,2.3,4
			l195.4,112.8C377.9,189.3,378.9,188.7,378.9,187.2z"/>
		<path class="st6" d="M184.4,76.2c0.1,0,0.1,0,0.2,0c0.3-0.1,0.4-0.4,0.4-0.7l-0.2-1.9l0.9-0.7c0.2-0.1,0.2-0.3,0.2-0.5
			c0-0.3-0.1-0.6-0.4-0.8l-1.4-1.1c0,0,0-0.1-0.1-0.1l-0.6-2c-0.1-0.3-0.3-0.6-0.7-0.7c-0.2,0-0.5,0.1-0.5,0.3l0,0l-0.5,1.1
			l-1.2-0.4c-0.2-0.1-0.5,0-0.6,0.1c-0.2,0.3-0.2,0.7,0,0.9l1,1.9c0,0,0,0.1,0,0.1l-0.2,1.7c0,0.3,0.1,0.6,0.3,0.8
			c0.1,0.2,0.3,0.2,0.5,0.2l1.1-0.2l1.2,1.5C183.9,76.1,184.1,76.2,184.4,76.2z M185,72.3l-0.9,0.7c-0.2,0.2-0.3,0.4-0.2,0.6
			l0.2,1.3l-0.8-1c-0.1-0.2-0.4-0.3-0.6-0.3l-1.1,0.1c0,0,0-0.1,0-0.1l0.2-1.7c0-0.2,0-0.4-0.1-0.6l-0.9-1.6l0.8,0.3
			c0.3,0.1,0.6,0,0.7-0.3l0.4-0.9l0.5,1.8c0.1,0.2,0.2,0.4,0.3,0.5l1.4,1C185,72.2,185,72.2,185,72.3z"/>
		<path class="st0" d="M176.1,65.2c0.4,0,0.8-0.3,0.8-0.8c0-0.3-0.2-0.6-0.4-0.7l-6.6-3.8c-0.4-0.2-0.9-0.1-1.1,0.2
			c-0.2,0.4-0.1,0.9,0.2,1.1c0,0,0.1,0,0.1,0l6.6,3.8C175.8,65.1,176,65.2,176.1,65.2z"/>
		<path class="st0" d="M176.1,69c0.3,0,0.6-0.2,0.7-0.4c0.2-0.4,0.1-0.9-0.3-1.1l-6.6-3.8c-0.4-0.2-0.9-0.1-1.1,0.3c0,0,0,0,0,0
			c-0.2,0.4-0.1,0.9,0.3,1.1c0,0,0,0,0,0l6.6,3.8C175.8,69,176,69,176.1,69z"/>
		<path class="st0" d="M176.1,72.7c0.4,0,0.8-0.4,0.8-0.8c0-0.3-0.2-0.6-0.4-0.7l-6.6-3.8c-0.4-0.2-0.9-0.1-1.1,0.3
			c-0.2,0.4-0.1,0.9,0.3,1.1c0,0,0,0,0,0l6.6,3.8C175.8,72.7,176,72.7,176.1,72.7z"/>
		<g id="freepik--Search--inject-2">
			<path class="st0" d="M402.3,214.4c0.4,0,0.8-0.3,0.8-0.8c0-0.3-0.2-0.6-0.4-0.7l-6.6-3.8c-0.4-0.2-0.9,0-1.1,0.4
				c-0.2,0.4-0.1,0.8,0.3,1l6.6,3.8C402,214.3,402.2,214.4,402.3,214.4z"/>
			<path class="st0" d="M402.3,218.2c0.3,0,0.6-0.2,0.7-0.4c0.2-0.4,0.1-0.9-0.3-1.1c0,0,0,0,0,0l-6.6-3.8c-0.4-0.2-0.9-0.1-1.1,0.3
				c0,0,0,0,0,0c-0.2,0.4-0.1,0.9,0.3,1.1c0,0,0,0,0,0l6.6,3.8C402,218.1,402.2,218.2,402.3,218.2z"/>
			<path class="st0" d="M402.3,222c0.4,0,0.8-0.4,0.8-0.8c0-0.3-0.2-0.6-0.4-0.7l-6.6-3.8c-0.4-0.2-0.9-0.1-1.1,0.3c0,0,0,0,0,0
				c-0.2,0.4-0.1,0.9,0.3,1.1c0,0,0,0,0,0l6.6,3.8C402,222,402.2,222,402.3,222z"/>
			<path class="st16" d="M344.1,181v5.8c0,1.2-0.8,1.7-1.9,1.1l-77.9-45.1v-10.1l77.9,45.1C343.4,178.5,344.1,179.7,344.1,181z"/>
			<path class="st1" d="M254.5,127c-1-0.6-1.9-0.1-1.9,1.1v5.8c0.1,1.3,0.8,2.5,1.9,3.2l9.8,5.7v-10.1L254.5,127z"/>
			<path class="st5" d="M255.2,135l1.1-0.4c-0.1-0.5-0.2-0.9-0.2-1.4c-0.1-0.9,0.3-1.8,1-2.3c0.5-0.3,1.1-0.2,1.6,0.1
				c1.4,1.1,2.2,2.8,2.2,4.6c0.1,0.9-0.3,1.8-1,2.3c-0.2,0.1-0.4,0.2-0.7,0.2c-0.3,0-0.6-0.1-0.9-0.3c-0.8-0.6-1.5-1.4-1.8-2.4
				l-1.1,0.3c0,0-0.1,0-0.1,0c-0.2,0-0.4-0.1-0.4-0.4C254.9,135.2,255,135,255.2,135L255.2,135z M258.8,137.1
				c0.2,0.2,0.5,0.2,0.8,0.1c0.4-0.4,0.7-1,0.6-1.6c0-1.5-0.6-2.9-1.8-3.9c-0.2-0.1-0.3-0.1-0.5-0.1c-0.1,0-0.2,0-0.3,0.1
				c-0.4,0.4-0.7,1-0.6,1.6C257,134.7,257.6,136.1,258.8,137.1L258.8,137.1z"/>
			<path class="st1" d="M376.5,197.5l11.2,6.5c1.1,0.7,1.8,1.9,1.9,3.2v5.8c0,1.2-0.8,1.7-1.9,1.1l-11.2-6.5
				c-1.1-0.7-1.8-1.9-1.9-3.2v-5.8C374.7,197.4,375.5,196.9,376.5,197.5z"/>
			<path class="st1" d="M180.9,84.6c2.6,1.7,4.2,4.5,4.4,7.6c0,2.8-2,3.9-4.4,2.5c-2.6-1.7-4.2-4.5-4.4-7.6
				C176.5,84.3,178.5,83.2,180.9,84.6z"/>
			<path class="st15" d="M181.4,89c0.1,0,0.3,0,0.4-0.1c0.3-0.2,0.4-0.5,0.4-0.9c0-0.8-0.5-1.6-1.1-2l0,0c-0.4-0.3-0.9-0.2-1.2,0.1
				c-0.1,0.2-0.2,0.4-0.2,0.7c0,0.8,0.5,1.6,1.2,2C181,88.9,181.2,89,181.4,89z"/>
			<path class="st15" d="M179.1,89.3c0.5-0.2,1.1-0.2,1.5,0.1l0.6,0.4c1.2,0.7,1.9,2,2,3.4v0.5c-0.8,0.3-1.7,0.2-2.4-0.3
				c-1-0.6-1.8-1.5-2.4-2.5v-0.1C178.4,90.2,178.7,89.6,179.1,89.3z"/>
			<path class="st1" d="M196.4,98.1v-1.6c0-1.8,1.1-2.6,2.4-1.8l0,0c1.5,1.1,2.4,2.8,2.4,4.6v1.4c0,1,0.3,1.9,0.8,2.7l0,0
				c0.1,0.2,0.2,0.5,0.2,0.7l0,0c0,0.4-0.3,0.7-0.6,0.5l-5.6-3.2c-0.4-0.3-0.6-0.7-0.6-1.2l0,0c0-0.2,0.1-0.3,0.2-0.5l0,0
				C196.1,99.4,196.5,98.8,196.4,98.1z"/>
			<path class="st1" d="M197.6,102.8c0,0.9,0.4,1.7,1.1,2.2c0.6,0.4,1.2,0,1.2-0.9L197.6,102.8z"/>
			<path class="st1" d="M217.1,105.5c-0.3-0.2-0.6-0.3-1-0.3c-0.3,0-0.6,0-0.8,0.2c-0.2,0.1-0.4,0.4-0.5,0.6
				c-0.1,0.3-0.2,0.7-0.2,1.1c0,0.3,0,0.7,0.1,1c0.1,0.3,0.2,0.6,0.3,0.9c0.1,0.3,0.2,0.5,0.4,0.8l0.4,0.7c0.1,0.2,0.2,0.5,0.3,0.7
				c0.1,0.2,0.2,0.5,0.2,0.7c0,0.1,0,0.2,0.1,0.3c0,0.1,0.1,0.1,0.2,0.2l1.1,0.7c0.1,0,0.1,0,0.2,0c0.1-0.1,0.1-0.1,0.1-0.2
				c0-0.3,0-0.6-0.1-0.9c-0.1-0.3-0.2-0.6-0.3-0.8c-0.1-0.3-0.3-0.5-0.4-0.8s-0.3-0.5-0.4-0.7s-0.2-0.4-0.3-0.7
				c-0.1-0.2-0.1-0.4-0.1-0.6c0-0.3,0.1-0.5,0.2-0.5s0.4,0,0.6,0.1c0.2,0.1,0.4,0.3,0.6,0.5c0.1,0.2,0.2,0.4,0.3,0.6l0.1,0.5
				c0,0.1,0.1,0.3,0.2,0.3l1.1,0.7c0,0,0.1,0,0.1,0c0-0.1,0.1-0.1,0.1-0.2c0-0.4-0.1-0.8-0.2-1.2c-0.1-0.4-0.3-0.9-0.5-1.3
				c-0.2-0.4-0.5-0.8-0.8-1.2C217.9,106.1,217.5,105.7,217.1,105.5z M216.3,114.7c0,0.1,0,0.2,0.1,0.3c0,0.1,0.1,0.2,0.2,0.2
				l1.2,0.7c0,0,0.1,0,0.2,0c0,0,0,0,0,0c0.1-0.1,0.1-0.1,0.1-0.2v-1.4c0-0.1,0-0.2-0.1-0.3c0-0.1-0.1-0.2-0.2-0.2l-1.2-0.7
				c-0.1,0-0.1,0-0.2,0c-0.1,0.1-0.1,0.1-0.1,0.2V114.7z"/>
		</g>
		<path class="st1" d="M236.3,143.1V163c0,1.5-1,2.1-2.3,1.4l-25.9-15c-1.4-0.9-2.2-2.4-2.3-4v-19.8c0-1.5,1-2.1,2.3-1.3l26,15
			C235.4,140.1,236.2,141.5,236.3,143.1z"/>
		<path class="st17" d="M236.3,143.1V163c0,1.5-1,2.1-2.3,1.4l-25.9-15c-1.4-0.9-2.2-2.4-2.3-4v-19.8c0-1.5,1-2.1,2.3-1.3l26,15
			C235.4,140.1,236.2,141.5,236.3,143.1z"/>
		<path class="st5" d="M225.2,151.5v-8.7c0-0.9-0.7-1.6-1.6-1.7l-7.9-0.4c-0.9,0-1.1,0.5-0.5,1.1l9,10
			C224.7,152.5,225.2,152.4,225.2,151.5z"/>
		<path class="st0" d="M198.2,119.9l-21-12.2c-0.6-0.3-1-0.1-1,0.5c0.1,0.7,0.4,1.4,1,1.7l21,12.2c0.6,0.3,1,0.1,1-0.5
			C199.2,120.9,198.8,120.3,198.2,119.9z"/>
		<path class="st0" d="M198.2,124.4l-21-12.1c-0.6-0.3-1-0.1-1,0.5c0.1,0.7,0.4,1.4,1,1.7l21,12.1c0.6,0.3,1,0.1,1-0.5
			C199.2,125.4,198.8,124.8,198.2,124.4z"/>
		<path class="st0" d="M198.2,128.8l-21-12.2c-0.6-0.3-1-0.1-1,0.5c0.1,0.7,0.4,1.4,1,1.7l21,12.1c0.6,0.3,1,0.1,1-0.5
			C199.2,129.8,198.8,129.2,198.2,128.8z"/>
		<path class="st6" d="M198.6,135.1l-14.4-8.3c-0.4-0.2-0.7-0.1-0.7,0.4c0,0.5,0.3,0.9,0.7,1.2l14.4,8.3c0.4,0.2,0.7,0.1,0.7-0.4
			C199.3,135.8,199,135.3,198.6,135.1z"/>
		<path class="st6" d="M198.6,138.2l-14.4-8.3c-0.4-0.2-0.7-0.1-0.7,0.4c0,0.5,0.3,0.9,0.7,1.2l14.4,8.3c0.4,0.2,0.7,0.1,0.7-0.4
			C199.3,138.9,199,138.4,198.6,138.2z"/>
		<path class="st6" d="M198.6,141.2l-14.4-8.3c-0.4-0.2-0.7-0.1-0.7,0.4c0,0.5,0.3,0.9,0.7,1.2l14.4,8.3c0.4,0.2,0.7,0.1,0.7-0.4
			C199.3,141.9,199,141.4,198.6,141.2z"/>
		<path class="st1" d="M236.3,178.5v19.9c0,1.5-1,2.1-2.3,1.4l-25.9-15c-1.4-0.9-2.2-2.4-2.3-4v-19.9c0-1.5,1-2.1,2.3-1.4l26,15
			C235.4,175.4,236.2,176.9,236.3,178.5z"/>
		<path class="st17" d="M236.3,178.5v19.9c0,1.5-1,2.1-2.3,1.4l-25.9-15c-1.4-0.9-2.2-2.4-2.3-4v-19.9c0-1.5,1-2.1,2.3-1.4l26,15
			C235.4,175.4,236.2,176.9,236.3,178.5z"/>
		<path class="st5" d="M225.2,186.8v-8.7c0-0.9-0.7-1.6-1.6-1.7l-7.9-0.4c-0.9,0-1.1,0.5-0.5,1.1l9,10
			C224.7,187.9,225.2,187.7,225.2,186.8z"/>
		<path class="st0" d="M198.2,155.2l-21-12.1c-0.6-0.3-1-0.1-1,0.5c0.1,0.7,0.4,1.4,1,1.7l21,12.1c0.6,0.3,1,0.1,1-0.5
			C199.2,156.3,198.8,155.6,198.2,155.2z"/>
		<path class="st0" d="M198.2,159.8l-21-12.1c-0.6-0.3-1-0.1-1,0.5c0.1,0.7,0.4,1.4,1,1.7l21,12.1c0.6,0.3,1,0.1,1-0.5
			C199.2,160.8,198.8,160.1,198.2,159.8z"/>
		<path class="st0" d="M198.2,164.1l-21-12.1c-0.6-0.3-1-0.1-1,0.5c0.1,0.7,0.4,1.4,1,1.7l21,12.1c0.6,0.3,1,0.1,1-0.5
			C199.2,165.2,198.8,164.5,198.2,164.1z"/>
		<path class="st6" d="M198.6,170.4l-14.4-8.3c-0.4-0.2-0.7-0.1-0.7,0.4c0,0.5,0.3,0.9,0.7,1.2l14.4,8.4c0.4,0.2,0.7,0.1,0.7-0.4
			C199.3,171.1,199,170.7,198.6,170.4z"/>
		<path class="st6" d="M198.6,173.5l-14.4-8.3c-0.4-0.2-0.7-0.1-0.7,0.4c0,0.5,0.3,0.9,0.7,1.2l14.4,8.3c0.4,0.2,0.7,0.1,0.7-0.4
			C199.3,174.2,199,173.8,198.6,173.5z"/>
		<path class="st6" d="M198.6,176.5l-14.4-8.3c-0.4-0.2-0.7-0.1-0.7,0.4c0,0.5,0.3,0.9,0.7,1.2l14.4,8.3c0.4,0.2,0.7,0.1,0.7-0.4
			C199.3,177.2,199,176.8,198.6,176.5z"/>
		<path class="st1" d="M236.3,213.8v19.9c0,1.5-1,2.1-2.3,1.4L208,220c-1.4-0.9-2.2-2.4-2.3-4v-19.9c0-1.5,1-2.1,2.3-1.3l26,15
			C235.4,210.7,236.2,212.2,236.3,213.8z"/>
		<path class="st17" d="M236.3,213.8v19.9c0,1.5-1,2.1-2.3,1.4L208,220c-1.4-0.9-2.2-2.4-2.3-4v-19.9c0-1.5,1-2.1,2.3-1.3l26,15
			C235.4,210.7,236.2,212.2,236.3,213.8z"/>
		<path class="st5" d="M225.2,222.1v-8.7c0-0.9-0.7-1.6-1.6-1.7l-7.9-0.4c-0.9,0-1.1,0.5-0.5,1.1l9,10
			C224.7,223.2,225.2,223,225.2,222.1z"/>
		<path class="st0" d="M198.2,190.6l-21-12.1c-0.6-0.3-1-0.1-1,0.5c0.1,0.7,0.4,1.4,1,1.7l21,12.1c0.6,0.3,1,0.1,1-0.5
			C199.2,191.6,198.8,191,198.2,190.6z"/>
		<path class="st0" d="M198.2,195.1l-21-12.1c-0.6-0.3-1-0.1-1,0.5c0.1,0.7,0.4,1.4,1,1.7l21,12.1c0.6,0.3,1,0.1,1-0.5
			C199.2,196.1,198.8,195.5,198.2,195.1z"/>
		<path class="st0" d="M198.2,199.5l-21-12.1c-0.6-0.3-1-0.1-1,0.5c0.1,0.7,0.4,1.4,1,1.7l21,12.1c0.6,0.3,1,0.1,1-0.5
			C199.2,200.5,198.8,199.9,198.2,199.5z"/>
		<path class="st6" d="M198.6,205.7l-14.4-8.3c-0.4-0.2-0.7-0.1-0.7,0.4c0,0.5,0.3,0.9,0.7,1.2l14.4,8.3c0.4,0.2,0.7,0.1,0.7-0.4
			C199.3,206.4,199,206,198.6,205.7z"/>
		<path class="st6" d="M198.6,208.8l-14.4-8.3c-0.4-0.2-0.7-0.1-0.7,0.4c0,0.5,0.3,0.9,0.7,1.2l14.4,8.3c0.4,0.2,0.7,0.1,0.7-0.4
			C199.3,209.5,199,209.1,198.6,208.8z"/>
		<path class="st6" d="M198.6,211.8l-14.4-8.3c-0.4-0.2-0.7-0.1-0.7,0.4c0,0.5,0.3,0.9,0.7,1.2l14.4,8.3c0.4,0.2,0.7,0.1,0.7-0.4
			C199.3,212.5,199,212.1,198.6,211.8z"/>
		<path class="st1" d="M236.3,249.1V269c0,1.5-1,2.1-2.3,1.3l-25.9-15c-1.4-0.9-2.2-2.4-2.3-4v-19.9c0-1.5,1-2.1,2.3-1.3l26,15
			C235.4,246,236.2,247.5,236.3,249.1z"/>
		<path class="st17" d="M236.3,249.1V269c0,1.5-1,2.1-2.3,1.3l-25.9-15c-1.4-0.9-2.2-2.4-2.3-4v-19.9c0-1.5,1-2.1,2.3-1.3l26,15
			C235.4,246,236.2,247.5,236.3,249.1z"/>
		<path class="st5" d="M225.2,257.5v-8.7c0-0.9-0.7-1.6-1.6-1.7l-7.9-0.3c-0.9,0-1.1,0.5-0.5,1.1l9,10
			C224.7,258.6,225.2,258.4,225.2,257.5z"/>
		<path class="st0" d="M198.2,225.9l-21-12.1c-0.6-0.3-1-0.1-1,0.5c0.1,0.7,0.4,1.4,1,1.7l21,12.1c0.6,0.3,1,0.1,1-0.5
			C199.2,226.9,198.8,226.3,198.2,225.9z"/>
		<path class="st0" d="M198.2,230.4l-21-12.1c-0.6-0.3-1-0.1-1,0.5c0.1,0.7,0.4,1.4,1,1.7l21,12.1c0.6,0.3,1,0.1,1-0.5
			C199.2,231.5,198.8,230.8,198.2,230.4z"/>
		<path class="st0" d="M198.2,234.8l-21-12.1c-0.6-0.3-1-0.1-1,0.5c0.1,0.7,0.4,1.4,1,1.7l21,12.1c0.6,0.3,1,0.1,1-0.5
			C199.2,235.8,198.8,235.2,198.2,234.8z"/>
		<path class="st6" d="M198.6,241.1l-14.4-8.3c-0.4-0.2-0.7-0.1-0.7,0.4c0,0.5,0.3,0.9,0.7,1.2l14.4,8.3c0.4,0.2,0.7,0.1,0.7-0.4
			C199.3,241.8,199,241.4,198.6,241.1z"/>
		<path class="st6" d="M198.6,244.2l-14.4-8.3c-0.4-0.2-0.7-0.1-0.7,0.4c0,0.5,0.3,0.9,0.7,1.2l14.4,8.3c0.4,0.2,0.7,0.1,0.7-0.4
			C199.3,244.9,199,244.5,198.6,244.2z"/>
		<path class="st6" d="M198.6,247.2l-14.4-8.3c-0.4-0.2-0.7-0.1-0.7,0.4c0,0.5,0.3,0.9,0.7,1.2l14.4,8.3c0.4,0.2,0.7,0.1,0.7-0.4
			C199.3,247.9,199,247.5,198.6,247.2z"/>
		<path class="st0" d="M397.8,344.7l-78.4-45.3c-1.3-0.7-2.3-0.2-2.3,1.2c0.1,1.6,1,3,2.3,3.9l78.4,45.3c1.3,0.7,2.3,0.2,2.3-1.2
			C400,347,399.1,345.6,397.8,344.7z"/>
		<path class="st6" d="M398.8,353.9l-44-25.4c-0.7-0.4-1.3-0.1-1.3,0.7c0.1,0.9,0.6,1.7,1.3,2.2l44,25.4c0.7,0.4,1.3,0.1,1.3-0.7
			C400,355.2,399.5,354.4,398.8,353.9z"/>
		<path class="st0" d="M381.7,352.9l-56.2-32.4c-1.3-0.8-2.3-0.2-2.3,1.2c0.1,1.6,1,3,2.3,3.9l56.2,32.4c1.3,0.7,2.3,0.2,2.3-1.2
			C383.9,355.2,383,353.7,381.7,352.9z"/>
		<path class="st6" d="M382.7,362L361,349.5c-0.7-0.4-1.3-0.1-1.3,0.7c0.1,0.9,0.6,1.7,1.3,2.2l21.7,12.5c0.7,0.4,1.3,0.1,1.3-0.7
			C384,363.3,383.5,362.5,382.7,362z"/>
		<path class="st1" d="M394.1,358.6c3.6,2.4,5.9,6.3,6.1,10.6c0,3.9-2.7,5.5-6.1,3.5c-3.6-2.4-5.9-6.3-6.1-10.6
			C387.9,358.3,390.7,356.7,394.1,358.6z"/>
		<path class="st15" d="M394.8,364.9c0.2,0,0.4,0,0.6-0.1c0.4-0.3,0.6-0.7,0.6-1.2c-0.1-1.1-0.7-2.2-1.6-2.8l0,0
			c-0.4-0.3-0.9-0.3-1.4-0.1c-0.4,0.3-0.6,0.7-0.6,1.2c0.1,1.1,0.7,2.2,1.6,2.8C394.2,364.8,394.5,364.8,394.8,364.9z"/>
		<path class="st15" d="M391.6,365.3c0.7-0.3,1.5-0.3,2.2,0.2l0.9,0.5c1.6,1,2.7,2.8,2.8,4.8v0.6c-1.1,0.5-2.4,0.3-3.4-0.4
			c-1.4-0.9-2.6-2.1-3.4-3.5v-0.1C390.6,366.5,390.9,365.7,391.6,365.3z"/>
		<path class="st1" d="M288.5,301.8l-25.9-15c-1.3-0.7-2.3-0.1-2.3,1.4v4.7c0.1,1.6,1,3.1,2.3,4l25.9,15c1.3,0.7,2.3,0.1,2.3-1.4
			v-4.7C290.7,304.2,289.8,302.7,288.5,301.8z"/>
		<path class="st18" d="M288.5,301.8l-25.9-15c-1.3-0.7-2.3-0.1-2.3,1.4v4.7c0.1,1.6,1,3.1,2.3,4l25.9,15c1.3,0.7,2.3,0.1,2.3-1.4
			v-4.7C290.7,304.2,289.8,302.7,288.5,301.8z"/>
		<path class="st0" d="M250.7,284.8v-1.5c0-1.8,1.1-2.6,2.4-1.8l0,0c1.5,1.1,2.4,2.8,2.4,4.6v1.4c0,1,0.3,1.9,0.8,2.7l0,0
			c0.1,0.2,0.2,0.5,0.2,0.7l0,0c0,0.5-0.3,0.6-0.6,0.5l-5.6-3.2c-0.4-0.3-0.6-0.7-0.6-1.1l0,0c0-0.2,0.1-0.3,0.2-0.5l0,0
			C250.5,286.1,250.8,285.4,250.7,284.8z"/>
		<path class="st0" d="M252,289.5c0,0.9,0.4,1.7,1.1,2.2c0.6,0.4,1.1,0,1.1-0.9L252,289.5z"/>
		<path class="st1" d="M297.8,292.4c0.1,0.4,0.2,0.7,0.5,0.9c-0.1,0.1-0.1,0.3-0.1,0.4c0,0.4,0.3,0.8,0.7,1.1l3.1,1.8v-4l0,0
			c0-0.1-0.8-1.9-0.9-2.2c0-0.5,0-0.9,0-1.4c-0.2-0.3-0.5-0.4-0.8-0.4l0,0c-0.1,0-0.1,0.1-0.2,0.2c-0.1,0.2-0.2,0.4-0.2,0.6
			c0,0.4,0,0.8,0.1,1.1l-1.9-1.1c-0.1-0.1-0.2-0.1-0.4,0c-0.1,0.1-0.2,0.2-0.2,0.4c0,0.3,0.1,0.6,0.3,0.8c0,0-0.4-0.1-0.4,0.4
			c0,0.4,0.2,0.7,0.4,0.9C297.9,291.9,297.8,292,297.8,292.4z"/>
		<path class="st1" d="M302.4,296.3v0.9c0,0.1,0.1,0.2,0.2,0.3l1,0.6l0,0c0.1,0,0.1,0,0.2,0v-4.6l-0.8-0.5l0,0l-0.5-0.3
			c0,0.1,0,0.1,0,0.2L302.4,296.3z"/>
		<path class="st1" d="M276.1,276.8c0-0.2,0.1-0.4,0.3-0.4c0.1,0,0.1,0,0.2,0c0-0.2-0.1-0.4-0.1-0.5c0-0.3,0.3-0.5,0.7-0.3l3,1.8v4
			l0,0c-0.3,0.4-0.6,0.7-0.9,1.1c0,0.5,0,1,0,1.4c0,0.1-0.5-0.1-0.8-0.6l0,0c-0.1-0.1-0.1-0.3-0.2-0.4c-0.1-0.3-0.1-0.6-0.2-0.9
			c0-0.4,0-0.7,0.1-1.1l-1.8-1.1c-0.2-0.1-0.3-0.2-0.4-0.4c-0.1-0.2-0.2-0.4-0.2-0.6c0-0.4,0.2-0.5,0.3-0.5
			c-0.2-0.2-0.4-0.5-0.4-0.8c0-0.3,0.2-0.5,0.4-0.4C276.2,277.2,276.1,277,276.1,276.8z"/>
		<path class="st1" d="M280.7,278.1v-0.8c0-0.1,0.1-0.2,0.2-0.1l1,0.6l0,0c0.1,0,0.1,0.1,0.2,0.2v4.6l-0.8-0.5l0,0l-0.5-0.3
			c0-0.1,0-0.2,0-0.2L280.7,278.1z"/>
		<path class="st1" d="M252.6,263.9l3.4-1v1.8c1.3,0.6,2.5,1.5,3.3,2.7c1.9,2.8,0.5,4.3-0.1,4.5c0,0,1-0.7-0.1-2.6
			c-0.7-1.1-1.8-1.9-3.1-2.3v2L252.6,263.9z"/>
		<path class="st6" d="M292.9,286.1l-4.1-2.4c-1.3-0.8-2.3-0.2-2.3,1.2c0.1,1.6,1,3,2.3,3.9l4.1,2.4c1.3,0.8,2.3,0.2,2.3-1.2
			C295.1,288.4,294.2,286.9,292.9,286.1z"/>
		<path class="st6" d="M271,273.5l-4.1-2.4c-1.3-0.7-2.3-0.2-2.3,1.2c0.1,1.6,1,3,2.3,3.9l4.1,2.4c1.3,0.7,2.3,0.2,2.3-1.2
			C273.2,275.8,272.3,274.3,271,273.5z"/>
	</g>
</g>
<g id="freepik--Video--inject-2">
	<path class="st0" d="M393.7,223l-146.3-84.5c-1.3-0.8-2.3-0.1-2.3,1.3v104.3c0.1,1.6,1,3.1,2.3,4l146.3,84.5
		c1.3,0.8,2.3,0.1,2.3-1.3V227C396,225.4,395.1,223.9,393.7,223z"/>
	<g id="freepik--Bar--inject-2">
		<path class="st19" d="M376.8,316.1l-107.4-61.8c-0.7-0.4-1.3-0.1-1.3,0.6c0.1,0.9,0.5,1.6,1.3,2.1l107.4,61.8
			c0.7,0.4,1.3,0.1,1.3-0.6C378,317.3,377.6,316.5,376.8,316.1z"/>
		<path class="st15" d="M376.8,316.1L280,260.4c-0.7-0.4-1.3-0.1-1.3,0.6c0.1,0.9,0.5,1.6,1.3,2.1l96.8,55.6
			c0.7,0.4,1.3,0.1,1.3-0.6C378,317.3,377.6,316.5,376.8,316.1z"/>
		<path class="st15" d="M390,323.8v2.7c0,0.1,0.1,0.3,0.2,0.3l0.5,0.3c0.1,0,0.1,0,0.2,0c0,0,0-0.1,0-0.1v-2.7
			c0-0.1-0.1-0.3-0.2-0.3l-0.5-0.3C390,323.7,390,323.7,390,323.8z"/>
		<path class="st15" d="M388.2,322.8v2.7c0,0.1,0.1,0.3,0.2,0.3l0.5,0.3c0.1,0.1,0.2,0,0.2-0.1v-2.7c0-0.1-0.1-0.3-0.2-0.3l-0.5-0.3
			C388.2,322.6,388.2,322.7,388.2,322.8z"/>
		<path class="st15" d="M381,318.7v2.7c0,0.1,0.1,0.3,0.2,0.3l0.2,0.1c0.1,0.1,0.2,0,0.2-0.1v-2.7c0-0.1-0.1-0.3-0.2-0.3l-0.2-0.1
			C381.1,318.6,381.1,318.6,381,318.7C381,318.7,381,318.7,381,318.7z"/>
		<path class="st15" d="M384.8,320.8v2.6c0,0.2-0.1,0.2-0.2,0.1l-2.4-2.8c-0.1-0.1-0.1-0.3,0.1-0.3h2.2
			C384.6,320.5,384.8,320.6,384.8,320.8L384.8,320.8z"/>
		<path class="st5" d="M255.6,246.8c0.2,0,0.3-0.1,0.3-0.3v-0.9c0-0.1-0.1-0.2-0.1-0.3l-1.4-0.8c-0.1-0.1-0.3,0-0.4,0.1c0,0,0,0,0,0
			c-0.1,0.1,0,0.3,0.1,0.4l1.3,0.7v0.7C255.3,246.7,255.4,246.8,255.6,246.8z"/>
		<path class="st5" d="M249.1,243.1c0.2,0,0.3-0.1,0.3-0.3v-0.4l1,0.6c0.1,0.1,0.3,0,0.4-0.1c0,0,0,0,0,0c0.1-0.1,0-0.3-0.1-0.4
			c0,0,0,0,0,0l-1.4-0.8c-0.1-0.1-0.2-0.1-0.3,0c-0.1,0.1-0.2,0.2-0.1,0.3v0.9C248.8,242.9,248.9,243.1,249.1,243.1z"/>
		<path class="st5" d="M255.6,250.9c0,0,0.1,0,0.1,0c0.1-0.1,0.2-0.2,0.2-0.3v-0.9c0-0.2-0.2-0.3-0.4-0.2c-0.1,0-0.2,0.1-0.2,0.2
			v0.3l-1-0.6c-0.1-0.1-0.3,0-0.4,0.1c-0.1,0.1,0,0.3,0.1,0.4l1.4,0.8C255.5,250.8,255.5,250.9,255.6,250.9z"/>
		<path class="st5" d="M250.5,247.9c0.2,0,0.3-0.1,0.3-0.3c0-0.1-0.1-0.2-0.2-0.3l-1.3-0.7v-0.7c0-0.2-0.1-0.3-0.3-0.3
			c-0.2,0-0.3,0.1-0.3,0.3v0.9c0,0.1,0.1,0.2,0.1,0.3l1.4,0.8C250.4,247.9,250.5,247.9,250.5,247.9z"/>
		<path class="st15" d="M258.8,250.1L258.8,250.1h0.6c0,0,0.1,0,0.1-0.1c0,0,0,0,0,0c0-0.1,0-0.2,0-0.3c0-0.1,0-0.2,0-0.3
			c0-0.1,0-0.1-0.1-0.2l-0.6-0.8c0-0.1,0-0.1,0-0.2l0.3-0.7l0,0l0,0c0,0,0.1,0,0.1,0l0.7,0.6c0,0,0.1,0,0.2,0
			c0.1-0.1,0.2-0.1,0.3-0.2c0,0,0.1-0.1,0.1-0.1l-0.2-1c0,0,0-0.1,0-0.1h0.1l0.7,0.1c0.1,0,0.1,0,0.1,0.1l0.4,1
			c0,0.1,0.1,0.1,0.1,0.1c0.1,0.1,0.3,0.1,0.4,0.2c0.1,0,0.1,0,0.1,0l0.3-0.5c0,0,0.1,0,0.1,0l0.7,0.8c0,0,0.1,0.1,0.1,0.2l-0.2,0.7
			c0,0.1,0,0.1,0,0.2c0.1,0.2,0.2,0.4,0.3,0.6c0,0.1,0.1,0.1,0.2,0.1l0.6,0.1c0.1,0,0.1,0.1,0.1,0.1l0.3,1.1c0,0,0,0.1-0.1,0.1
			c0,0,0,0,0,0h-0.6c-0.1,0-0.1,0-0.1,0.1v0c0,0.2,0,0.4,0,0.6c0,0.1,0,0.1,0.1,0.2l0.6,0.8c0,0.1,0,0.1,0,0.2l-0.3,0.7l0,0l0,0
			c0,0,0,0-0.1,0l-0.7-0.6c0,0-0.1,0-0.1,0c-0.1,0.1-0.2,0.1-0.3,0.2c-0.1,0-0.1,0.1-0.1,0.1l0.2,1c0,0,0,0.1,0,0.1h-0.1l-0.7-0.1
			c-0.1,0-0.1,0-0.1-0.1l-0.4-1c0-0.1-0.1-0.1-0.1-0.1l-0.2-0.1l-0.2-0.1c0,0-0.1-0.1-0.1,0l-0.4,0.5l0,0c0,0-0.1,0-0.1,0l-0.7-0.8
			c0,0-0.1-0.1-0.1-0.2l0.2-0.7c0-0.1,0-0.1,0-0.2c-0.1-0.2-0.2-0.4-0.3-0.6c0-0.1-0.1-0.1-0.2-0.1l-0.6-0.1c-0.1,0-0.1-0.1-0.1-0.1
			l-0.3-1.1C258.8,250.2,258.8,250.2,258.8,250.1C258.8,250.1,258.8,250.1,258.8,250.1z M262.2,252.7h0.2c0.3,0,0.5-0.2,0.6-0.4
			c0-0.1,0.1-0.2,0.1-0.4c0-0.1,0-0.1,0-0.2c0-0.7-0.3-1.4-0.8-1.9c-0.1-0.2-0.3-0.3-0.5-0.4l-0.2-0.1c-0.2-0.1-0.3-0.1-0.5-0.1
			h-0.1c-0.2,0-0.4,0.2-0.5,0.4c-0.2,0.9,0.1,1.8,0.7,2.5C261.6,252.4,261.9,252.6,262.2,252.7z"/>
	</g>
	<g id="freepik--Steps--inject-2">
		<path class="st1" d="M294.8,175.9c-3.2-1.8-5.7-0.4-5.7,3.3c0.2,4,2.4,7.7,5.7,9.9c3.2,1.8,5.7,0.4,5.7-3.3
			C300.3,181.8,298.2,178.1,294.8,175.9z"/>
		<text transform="matrix(-0.65 -0.38 0 1 297.0901 188.0299)" class="st0 st20 st21">1</text>
		<path class="st1" d="M282,171.4l-27.8-16c-0.8-0.4-1.4-0.1-1.4,0.7c0.1,0.9,0.6,1.8,1.4,2.3l27.8,16c0.8,0.4,1.4,0.1,1.4-0.7
			C283.3,172.7,282.8,171.9,282,171.4z"/>
		<path class="st6" d="M282.4,176.7l-19.1-11c-0.5-0.3-0.9-0.1-0.9,0.5c0,0.6,0.4,1.2,0.9,1.6l19.1,11c0.5,0.3,1,0.1,1-0.5
			C283.3,177.6,283,177,282.4,176.7z"/>
		<path class="st1" d="M294.8,195.8c-3.2-1.8-5.7-0.3-5.7,3.3c0.2,4,2.4,7.7,5.7,9.9c3.2,1.8,5.7,0.3,5.7-3.3
			C300.3,201.6,298.2,198,294.8,195.8z"/>
		<text transform="matrix(-0.65 -0.38 0 1 297.0901 207.8902)" class="st0 st20 st21">2</text>
		<path class="st1" d="M282,191.2l-27.8-16c-0.8-0.4-1.4-0.1-1.4,0.7c0.1,0.9,0.6,1.8,1.4,2.3l27.8,16c0.8,0.4,1.4,0.1,1.4-0.7
			C283.3,192.6,282.8,191.7,282,191.2z"/>
		<path class="st6" d="M282.4,196.6l-19.1-11c-0.5-0.3-0.9-0.1-0.9,0.5c0,0.6,0.4,1.2,0.9,1.6l19.1,11c0.5,0.3,1,0.1,1-0.5
			C283.3,197.5,283,196.9,282.4,196.6z"/>
		<path class="st1" d="M294.8,215.6c-3.2-1.8-5.7-0.4-5.7,3.3c0.2,4,2.3,7.7,5.7,9.9c3.2,1.8,5.7,0.4,5.7-3.3
			C300.3,221.5,298.2,217.8,294.8,215.6z"/>
		<text transform="matrix(-0.65 -0.38 0 1 297.0901 227.7496)" class="st0 st20 st21">3</text>
		<path class="st1" d="M282,211.1L254.2,195c-0.8-0.4-1.4-0.1-1.4,0.7c0.1,0.9,0.6,1.8,1.4,2.3l27.8,16.1c0.8,0.4,1.4,0.1,1.4-0.7
			C283.3,212.4,282.8,211.6,282,211.1z"/>
		<path class="st6" d="M282.4,216.4l-19.1-11c-0.5-0.3-0.9-0.1-0.9,0.5c0,0.6,0.4,1.2,0.9,1.6l19.1,11c0.5,0.3,1,0.1,1-0.5
			C283.3,217.4,283,216.8,282.4,216.4z"/>
	</g>
</g>
<g id="freepik--Character--inject-2">
	<path class="st10" d="M319.6,242.1c6.8,0.8,25,1.5,25,1.5l0,0c12-5.3,21.4-16.8,22.6-29.9l0.5-5.6c1-10.6-6.6-20.6-16.8-23.8
		c-11-3.6-22.8,2.4-26.4,13.4c-0.5,1.5-0.8,3-0.9,4.6c-0.2,2.8-1,5.2-3.2,7c-1.2,0.9-2.6,1.6-4,2.2c-2,0.9-3.9,2.1-5.5,3.7
		c-1.6,1.6-2.4,3.8-2.3,6c0.2,1.4,0.7,2.8,1.6,3.9c0.2,0.2,0.3,0.4,0.3,0.6c0,0.2-0.1,0.3-0.2,0.4c-2.1,2.6-3.2,6.3-1.9,9.4
		c0.9,2,2.4,3.6,4.3,4.5c1.9,0.9,4,1.6,6.1,1.8L319.6,242.1z"/>
	<path class="st22" d="M261.1,223.3c0.4-0.5,0.8-0.9,1.2-1.3c0.8-0.7,1.9-1.4,2.9-1c0.6,0.3,1.1,0.8,1.4,1.3c0.6,0.9,1.4,1.8,2,2.8
		c0.8,1.4,1.8,2.8,2.8,4c0.4,0.5,1.1,1.3,1.9,1.1c0.1,0,0.3-0.1,0.4-0.2c0.1-0.1,0.1-0.2,0.2-0.4c0.1-0.7,0.1-1.3-0.1-2
		c-0.2-0.7-0.2-1.3,0-2c0.2-0.7,0.8-1.1,1.5-1.1c0.2,0,0.4,0.1,0.5,0.2c0.1,0.1,0.2,0.2,0.2,0.3c1.3,2.6,2.3,5.3,2.8,8.2
		c0.1,1.3,0.4,2.5,0.7,3.7c0.9,2.6,3.9,4,6.1,5.5c4.7,3.1,9.6,6,14.6,8.6c2.5-2.2,18-15.7,22.3-19.3c6.2-5.1,12.7-2.8,13.6-2.8
		c0.9,0.1,2.1,6-5.2,14.6c0,0-22.7,19.2-27,21.7c-1.1,0.6-2.5,1.9-4.3,1.8h-0.1h-0.2c-0.2,0-0.5-0.1-0.7-0.1l0,0
		c-2.1-0.7-5.2-3.4-6.5-4.4c-6.5-5.2-12.7-10.8-18.7-16.7c-1.7-1.6-3.6-3-5.4-4.5c-2.4-1.8-4.4-4.1-6-6.7c-1.2-1.8-1.9-3.9-2.1-6.1
		C259.6,226.8,260.1,224.9,261.1,223.3z"/>
	<path class="st1" d="M360.2,275.3c5.4,12,6.6,19,7.1,25.5s-0.2,16.4-0.2,16.4L319.8,290c1.1-6.7,2.6-13.2,4.6-19.6L360.2,275.3z"/>
	<path class="st5" d="M324.4,255.5l0.3,12.4c-0.6,2.4-1.6,6.4-2.7,10c0.7,2.2,5.9,8.1,16.9,11.7c11.6,3.9,24.8-0.1,26.3-3l-4.6-11.6
		c0,0,4-15.5,4.1-15.6s-4.3-6.5-4.6-14s1.8-10.8,2.5-11.5c-0.3-0.1-7.1-2-7.1-2l-13.5-2.7l-6.4-0.4c-5.3,2.7-9.6,7-12.2,12.4
		C320.7,245.7,321.2,251.4,324.4,255.5z"/>
	<path class="st22" d="M332,193.4c-1.4,1.4-4.3,4.9-4,17.4c0.3,10.6,3.7,13.2,5.4,14c1.7,0.8,5.1,0.3,8.3-0.3v5.2
		c0,0-4.6,3.2-5.7,6.1c-0.9,2.2,4.8,5.4,13.5,1.6c3.5-1.5,6.4-5.4,6.4-5.4l-0.1-15.3c0,0,1.9,1.8,5.1-1c2.7-2.3,3.6-6.3,1.5-8.4
		c-1.9-1.7-4.8-1.6-6.6,0.3c-0.3,0.4-0.6,0.8-0.8,1.2c-4.4,0.1-8.8-1.1-12.7-3.3C335.5,201.8,332.5,197.5,332,193.4z"/>
	<path class="st10" d="M340.1,208.9c0,0.7,0.6,1.3,1.3,1.3s1.3-0.6,1.3-1.3c0-0.7-0.6-1.3-1.3-1.3
		C340.7,207.5,340.1,208.1,340.1,208.9C340.1,208.9,340.1,208.9,340.1,208.9z"/>
	<path class="st23" d="M341.1,216.8l-5,0.9c0.2,1.4,1.4,2.3,2.8,2.1c0,0,0.1,0,0.1,0C340.4,219.5,341.3,218.2,341.1,216.8z"/>
	<path class="st24" d="M339,219.8c-0.3,0.1-0.7,0.1-1,0c0.1-1.2,1-2.1,2.2-2.1c0.3,0,0.6,0.1,0.9,0.2
		C340.8,218.9,340,219.6,339,219.8z"/>
	<path class="st10" d="M329.5,204.6l3-1.2c-0.3-0.8-1.2-1.3-2-1c0,0-0.1,0-0.1,0C329.6,202.8,329.2,203.8,329.5,204.6z"/>
	<path class="st10" d="M330.2,207.9c0,0.7,0.6,1.3,1.3,1.3s1.3-0.6,1.3-1.3c0-0.7-0.6-1.3-1.3-1.3
		C330.8,206.6,330.2,207.2,330.2,207.9z"/>
	<polygon class="st24" points="336.4,207.4 335.5,215.1 331.5,213.2 	"/>
	<path class="st24" d="M341.8,224.5c3.4-0.5,10.4-2.5,11.5-5.3c-0.4,1.4-1.3,2.6-2.4,3.6c-2.1,1.8-9.1,3.8-9.1,3.8L341.8,224.5z"/>
	<path class="st10" d="M355.6,212.7c-1.8-0.2-3.2-1.8-3-3.6c0.2-1.8,1.8-3.2,3.6-3L355.6,212.7z"/>
	<path class="st22" d="M389.6,281.7c-1.5,8.8-4.7,17-14.4,33.4c-1.1,2-2.4,3.9-4,5.5c-1.6,1.8-3.6,3.2-5.8,4.1
		c-1.3,0.5-2.7,0.6-4.1,0.3c-2.6-0.6-4.9-2.7-5-3.9c-0.3-1.7,2.7-3.4,3.9-4.6c1-1,3-2.7,3.7-3.6c0.7-0.9,1.4-1.7,0.6-1.6
		c-0.5,0-1,0.2-1.5,0.2c-0.4,0-0.8,0-1.3,0c-0.9,0.1-1.7-0.3-2.3-0.9c-0.3-0.3-0.3-0.7-0.1-1.1c0.2-0.2,0.4-0.4,0.7-0.5
		c0.9-0.4,1.8-0.8,2.7-1.2c0.9-0.5,1.7-1,2.5-1.6c1.2-1,2.9-2.1,3.6-3.5c1.9-3.4,3.3-7,4.2-10.7c0.7-2.6,2-7.6,2.7-12.3
		c-0.2-0.6-3.3-6.2-5.2-9.5c-2.8-4.7-5.5-8.7-8.1-12.9c-5.5-6.7-5-19.5-0.1-23.5c8.6,2.2,11,5.9,13.9,11.4
		c2.8,5.3,10.2,20.2,12.6,27.5C389.8,275.6,390.1,278.7,389.6,281.7z"/>
</g>
<g id="freepik--Scissors--inject-2">
	<g id="freepik--scissors--inject-2">
		<path class="st10" d="M139.6,406.8l-82.7-18.3l-0.2,2.2c0,0,1.8,3,21.1,8.7s67.1,15.8,67.1,15.8l2-2.6L139.6,406.8z"/>
		<path class="st25" d="M80.2,370.2c0,0,4.9,7.7,10.7,12.3s36.7,31.4,36.7,31.4l10,5.5l3-1.7l-4.5-10.5c0,0-35-24.8-42.5-30
			S79.3,368.7,80.2,370.2z"/>
		<polygon class="st10" points="140.6,415.2 137.6,416.9 138.4,418.9 140.6,417.6 		"/>
		<polygon class="st25" points="80.2,367.5 80.2,370 82.7,373.6 82.7,369.8 		"/>
		<path class="st1" d="M128.6,446.5c-3.8-6,0.6-11.6,0.2-16.8s-1.1-15.9-1.1-15.9l10,5.5c0,0,3.3,8.5,4.7,12s7.3,7.3,11,10.4
			s6.7,10.4-3.5,13.3S132.4,452.5,128.6,446.5z M146.6,451.1c3.9-1.1,5.1-4.4,2.6-7.2s-7.7-4.2-11.6-3.1s-5.1,4.4-2.6,7.2
			S142.6,452.3,146.6,451.1z"/>
		<path class="st26" d="M128.6,446.5c-3.8-6,0.6-11.6,0.2-16.8s-1.1-15.9-1.1-15.9l10,5.5c0,0,3.3,8.5,4.7,12s7.3,7.3,11,10.4
			s6.7,10.4-3.5,13.3S132.4,452.5,128.6,446.5z M146.6,451.1c3.9-1.1,5.1-4.4,2.6-7.2s-7.7-4.2-11.6-3.1s-5.1,4.4-2.6,7.2
			S142.6,452.3,146.6,451.1z"/>
		<path class="st10" d="M128.2,410.1c1.1,0.9,2.7,1.2,4.1,0.8c1.5-0.4,2.1-1.5,1.4-2.4c-1.1-0.9-2.7-1.2-4.1-0.8
			C128,408.1,127.4,409.2,128.2,410.1z"/>
		<path class="st1" d="M139.7,405.6c0,0,11.8,2.2,15.7,2.5s9.5-0.5,19.2,0.4s27.2,9.2,28.1,17.3s-7.5,8.7-13.5,7.2
			s-9.4-3.7-19.7-8.9c-13.8-6.9-22.9-11.3-22.9-11.3l-7.7-6.4L139.7,405.6z M162.6,416.6c5.6,1.8,11.1,4,16.4,6.6
			c6.6,3.3,8.2,5.5,12.3,6.4c3.4,0.8,6.7-1.1,5-4.8c-1.8-3.9-6.7-8-15.9-11s-16.6-2.4-19.9-0.7C159.2,413.9,158.6,415.3,162.6,416.6
			z"/>
		<path class="st26" d="M139.7,405.6c0,0,11.8,2.2,15.7,2.5s9.5-0.5,19.2,0.4s27.2,9.2,28.1,17.3s-7.5,8.7-13.5,7.2
			s-9.4-3.7-19.7-8.9c-13.8-6.9-22.9-11.3-22.9-11.3l-7.7-6.4L139.7,405.6z M162.6,416.6c5.6,1.8,11.1,4,16.4,6.6
			c6.6,3.3,8.2,5.5,12.3,6.4c3.4,0.8,6.7-1.1,5-4.8c-1.8-3.9-6.7-8-15.9-11s-16.6-2.4-19.9-0.7C159.2,413.9,158.6,415.3,162.6,416.6
			z"/>
		<polygon class="st10" points="144.9,415.3 144.9,412.9 146.6,410.6 146.6,413.1 		"/>
		<path class="st25" d="M139.6,404.4l-82.9-16.1c0,0,1.8,3,21.1,8.7s67.1,15.8,67.1,15.8l2-2.6L139.6,404.4z"/>
		<path class="st0" d="M80.2,367.7c0,0,4.9,7.7,10.7,12.3s36.7,31.4,36.7,31.4l10,5.5l3-1.7l-4.5-10.5c0,0-35-24.8-42.5-30
			S79.3,366.3,80.2,367.7z"/>
		<path class="st1" d="M128.6,444.1c-3.8-6,0.6-11.6,0.2-16.8s-1.1-15.9-1.1-15.9l10,5.5c0,0,3.3,8.5,4.7,12.1s7.3,7.3,11,10.4
			s6.7,10.4-3.5,13.3S132.4,450.1,128.6,444.1z M146.6,448.7c3.9-1.1,5.1-4.4,2.6-7.2s-7.7-4.2-11.6-3.1s-5.1,4.4-2.6,7.2
			S142.6,449.8,146.6,448.7z"/>
		<path class="st10" d="M128.2,407.6c1.1,1,2.7,1.3,4.1,0.8c1.5-0.4,2.1-1.5,1.4-2.4c-1.1-0.9-2.7-1.2-4.1-0.8
			C128,405.7,127.4,406.8,128.2,407.6z"/>
		<path class="st1" d="M139.7,403.2c0,0,11.8,2.2,15.7,2.5s9.5-0.5,19.2,0.4s27.2,9.2,28.1,17.3s-7.5,8.7-13.5,7.2
			s-9.4-3.7-19.7-8.8c-13.8-6.9-23-11.3-23-11.3l-7.7-6.4L139.7,403.2z M162.6,414.1c5.6,1.8,11.1,4,16.4,6.6
			c6.6,3.2,8.2,5.5,12.3,6.4c3.4,0.8,6.7-1.1,5-4.8c-1.8-3.9-6.7-8-15.9-11s-16.6-2.5-19.9-0.7C159.2,411.5,158.6,412.8,162.6,414.1
			z"/>
	</g>
</g>
<g id="freepik--Pencil--inject-2">
	<g id="freepik--pencil--inject-2">
		<path class="st22" d="M212.9,378.9l-24.1-4.7c-0.4-0.1-0.8,0.2-0.9,0.6c0,0.2,0,0.5,0.2,0.6l16.4,18.5L212.9,378.9z"/>
		<path class="st10" d="M188.1,375.4c-0.3-0.3-0.2-0.8,0.1-1.1c0.2-0.1,0.4-0.2,0.6-0.2l4.7,0.9l0,0c-1.3,0.8-2.1,2.3-1.9,3.9v0.4
			L188.1,375.4z"/>
		<path class="st1" d="M295.2,446l-2-1.1l-2.4-1.4l-86.5-49.6c-0.8-2.7-0.6-5.5,0.7-8c1.7-3.8,5-6.9,7.8-7l86.4,49.5l4.6,2.5
			C300.8,429.5,292.2,444.4,295.2,446z"/>
		<path class="st4" d="M287.7,441.7l-4.4-2.5c-1.3-0.7-0.5-3.9,1-7.2c2-4.4,6-8.6,7.7-7.7l3.2,1.9l1.1,0.7c-1.7-0.9-5.7,3.3-7.7,7.7
			C287.3,437.7,286.5,440.8,287.7,441.7L287.7,441.7C287.6,441.6,287.7,441.7,287.7,441.7z"/>
		<path class="st1" d="M286.6,441c-3-1.6,5.6-16.5,8.7-14.9l4.4,2.5c-3-1.6-11.7,13.3-8.6,14.9L286.6,441z"/>
		<path class="st4" d="M295.2,446l-4.4-2.5c-3-1.5,5.2-16,8.4-15.1l0.2,0.1l4.4,2.5C300.8,429.5,292.2,444.4,295.2,446z"/>
		<path class="st27" d="M188,374.5l0.8-0.4l17.5,9.6l91.4,52.4c0.2-0.3,0.3-0.3,0.4-0.1c-2.6,4-4.5,9.1-2.8,9.9l-2-1.1l-2.4-1.4
			l-86.4-49.6l0,0L188,375.4C187.8,375.1,187.8,374.8,188,374.5z"/>
		<path class="st24" d="M313.7,456.5L295.2,446c-1.3-0.7-0.6-3.8,0.9-7.1c2-4.4,5.9-8.7,7.7-7.8l0,0l18.5,10.6
			c3.7,2.1,0.3,10.1-3.8,13.7C317.1,456.7,315.4,457.3,313.7,456.5z"/>
		<path class="st14" d="M312.6,450.8c1.1-4.2,4.4-8.2,7.5-9.1c0.9-0.3,2-0.2,2.8,0.4c2.8,2.6-0.5,9.9-4.3,13.3
			c-1.5,1.3-3.2,1.9-4.8,1.2C312.4,455.8,311.9,453.6,312.6,450.8z"/>
	</g>
</g>
</svg>
