<?xml version="1.0" encoding="utf-8"?>
<!-- Generator: Adobe Illustrator 28.1.0, SVG Export Plug-In . SVG Version: 6.00 Build 0)  -->
<svg version="1.1" id="Layer_1" xmlns="http://www.w3.org/2000/svg" xmlns:xlink="http://www.w3.org/1999/xlink" x="0px" y="0px"
	 viewBox="0 0 122.9 121.3" style="enable-background:new 0 0 122.9 121.3;" xml:space="preserve">
<style type="text/css">
	.st0{fill:#FFFFFF;}
</style>
<g>
	<path class="st0" d="M98.4,98.8c-0.2-0.6-0.4-1.3-0.4-2s0.1-1.4,0.4-2c0.3-0.6,0.6-1.2,1.1-1.6l0,0c0.3-0.3,0.6-0.5,0.9-0.7
		c0.2-0.1,0.3-0.2,0.6-0.3v-8.2h-8.5c-0.3,1.8-1.1,3.4-2.4,4.7c-1.6,1.6-3.7,2.5-6.1,2.5h-5.1v22.4H94c0.1-0.1,0.2-0.3,0.2-0.4
		c0.2-0.3,0.4-0.5,0.6-0.7c0.5-0.5,1-0.9,1.7-1.1c0.6-0.2,1.3-0.4,2-0.4c0.7,0,1.4,0.1,2,0.4c0.6,0.3,1.2,0.7,1.7,1.1
		c0.5,0.5,0.9,1,1.1,1.7c0.2,0.6,0.4,1.3,0.4,2c0,0.7-0.1,1.3-0.4,2c-0.3,0.6-0.7,1.2-1.1,1.7s-1,0.9-1.7,1.1
		c-0.6,0.2-1.3,0.4-2,0.4c-0.7,0-1.3-0.1-1.9-0.4l0,0c-0.6-0.3-1.2-0.7-1.7-1.1c-0.3-0.3-0.6-0.6-0.8-1c-0.1-0.2-0.2-0.4-0.3-0.6
		H76.6c-0.6,0-1.2-0.3-1.6-0.7c-0.4-0.4-0.7-1-0.7-1.6l0,0V91.1H63.1v20.3c0.2,0.1,0.3,0.2,0.5,0.3c0.3,0.2,0.6,0.4,0.9,0.7
		c0.5,0.5,0.9,1,1.1,1.7c0.2,0.6,0.4,1.3,0.4,2c0,0.7-0.1,1.3-0.4,1.9l0,0c-0.3,0.6-0.7,1.2-1.1,1.7c-0.5,0.5-1,0.9-1.7,1.1
		c-0.6,0.2-1.3,0.4-2,0.4c-0.7,0-1.4-0.1-2-0.4c-0.6-0.3-1.2-0.7-1.7-1.1s-0.9-1-1.1-1.7c-0.2-0.6-0.4-1.3-0.4-2
		c0-0.7,0.1-1.3,0.4-1.9l0,0c0.3-0.6,0.7-1.2,1.1-1.7c0.2-0.2,0.5-0.5,0.8-0.7l0,0c0.2-0.1,0.3-0.2,0.5-0.3l0,0V91.1H43.5v10.5
		c0,0.6-0.3,1.2-0.7,1.6s-1,0.7-1.6,0.7H30.6c-0.1,0.2-0.2,0.3-0.3,0.5c-0.2,0.3-0.4,0.5-0.6,0.8l0,0c-0.5,0.5-1,0.9-1.7,1.1
		c-0.6,0.2-1.3,0.4-2,0.4c-0.7,0-1.3-0.1-1.9-0.4l0,0c-0.6-0.3-1.2-0.7-1.7-1.1c-0.5-0.5-0.9-1-1.1-1.7c-0.2-0.6-0.4-1.3-0.4-2
		c0-0.7,0.1-1.4,0.4-2c0.3-0.6,0.6-1.2,1.1-1.7c0.5-0.5,1.1-0.8,1.7-1.1l0,0c0.6-0.2,1.3-0.4,2-0.4c0.7,0,1.4,0.1,2,0.4
		c0.6,0.3,1.2,0.6,1.6,1.1l0,0c0.3,0.3,0.5,0.6,0.7,0.9c0.1,0.2,0.2,0.3,0.3,0.6h8.2v-8.4c-1.6-0.4-3.1-1.2-4.2-2.3
		c-1.5-1.5-2.4-3.6-2.4-5.8v-5.5H7.7v15.1c0.1,0.1,0.3,0.2,0.4,0.2c0.3,0.2,0.5,0.4,0.7,0.6c0.5,0.5,0.9,1,1.1,1.7
		c0.2,0.6,0.4,1.3,0.4,2c0,0.7-0.1,1.4-0.4,2c-0.3,0.6-0.6,1.2-1.1,1.7c-0.5,0.5-1,0.9-1.7,1.1c-0.6,0.2-1.3,0.4-2,0.4
		c-0.7,0-1.3-0.1-2-0.4c-0.6-0.3-1.2-0.7-1.7-1.1s-0.9-1-1.1-1.7c-0.3-0.6-0.4-1.3-0.4-2c0-0.7,0.1-1.3,0.4-1.9l0,0
		c0.3-0.6,0.6-1.2,1.1-1.7c0.3-0.3,0.6-0.6,1-0.8c0.2-0.1,0.4-0.2,0.6-0.3V75c0-0.6,0.3-1.2,0.7-1.6c0.4-0.4,1-0.7,1.6-0.7l0,0h26.8
		V61.5H9.8c-0.1,0.2-0.2,0.3-0.3,0.5c-0.2,0.3-0.4,0.6-0.7,0.8c-0.5,0.5-1,0.9-1.7,1.1c-0.6,0.2-1.3,0.4-2,0.4
		c-0.7,0-1.3-0.1-1.9-0.4l0,0c-0.6-0.3-1.2-0.7-1.7-1.1c-0.5-0.5-0.9-1-1.1-1.7c-0.2-0.6-0.4-1.3-0.4-2c0-0.7,0.1-1.4,0.4-2
		c0.3-0.6,0.6-1.2,1.1-1.7s1-0.9,1.7-1.1c0.6-0.3,1.3-0.4,2-0.4c0.7,0,1.3,0.1,1.9,0.4l0,0c0.6,0.3,1.2,0.7,1.7,1.1
		c0.2,0.2,0.5,0.5,0.7,0.8l0,0c0.1,0.2,0.2,0.3,0.3,0.5l0,0h22.5V43c0-0.3,0-0.7,0.1-1H19.6c-0.6,0-1.2-0.3-1.6-0.7
		c-0.4-0.4-0.7-1-0.7-1.6V29c-0.2-0.1-0.3-0.2-0.5-0.3c-0.3-0.2-0.5-0.4-0.8-0.6l0,0c-0.5-0.5-0.9-1-1.1-1.7c-0.2-0.6-0.4-1.3-0.4-2
		c0-0.7,0.1-1.3,0.4-1.9l0,0c0.3-0.6,0.6-1.2,1.1-1.7c0.5-0.5,1-0.9,1.7-1.1c0.6-0.2,1.3-0.4,2-0.4c0.7,0,1.4,0.1,2,0.4
		c0.6,0.3,1.2,0.6,1.7,1.1c0.5,0.5,0.9,1.1,1.1,1.7l0,0c0.2,0.6,0.4,1.3,0.4,2c0,0.7-0.1,1.4-0.4,2c-0.3,0.6-0.6,1.2-1.1,1.6l0,0
		c-0.3,0.3-0.6,0.5-0.9,0.7c-0.2,0.1-0.4,0.2-0.5,0.3v8.2h12.6v0.1c0.1-0.1,0.2-0.2,0.2-0.3c1.5-1.5,3.7-2.5,6.1-2.5h4.8V7.7h-15
		c-0.1,0.1-0.2,0.3-0.2,0.4c-0.2,0.3-0.4,0.5-0.6,0.7c-0.5,0.5-1,0.9-1.7,1.1c-0.6,0.2-1.3,0.4-2,0.4c-0.7,0-1.4-0.1-2-0.4
		c-0.6-0.3-1.2-0.6-1.7-1.1c-0.5-0.5-0.9-1-1.1-1.7c-0.2-0.6-0.4-1.3-0.4-2c0-0.7,0.1-1.3,0.4-2c0.3-0.6,0.6-1.2,1.1-1.7
		c0.5-0.5,1-0.9,1.7-1.1C24.7,0.1,25.3,0,26,0c0.7,0,1.3,0.1,1.9,0.4l0,0c0.6,0.3,1.2,0.6,1.7,1.1c0.3,0.3,0.5,0.6,0.8,1
		c0.1,0.2,0.2,0.4,0.3,0.6h17.1c0.6,0,1.2,0.3,1.6,0.7c0.4,0.4,0.7,1,0.7,1.6l0,0v29.2h11.2V9.8c-0.2-0.1-0.3-0.2-0.5-0.3
		c-0.3-0.2-0.6-0.4-0.8-0.7c-0.5-0.5-0.9-1-1.1-1.7c-0.2-0.6-0.4-1.3-0.4-2c0-0.7,0.1-1.3,0.4-1.9l0,0C59.2,2.6,59.6,2,60,1.5
		c0.5-0.5,1-0.9,1.7-1.1C62.3,0.2,63,0,63.7,0c0.7,0,1.4,0.1,2,0.4c0.6,0.3,1.2,0.6,1.7,1.1s0.9,1,1.1,1.7c0.2,0.6,0.4,1.3,0.4,2
		c0,0.7-0.1,1.3-0.4,1.9l0,0c-0.3,0.6-0.7,1.2-1.1,1.7c-0.2,0.2-0.5,0.5-0.8,0.7l0,0c-0.2,0.1-0.3,0.2-0.5,0.3l0,0v24.8h14.9v-15
		c0-0.6,0.3-1.2,0.7-1.6s1-0.7,1.6-0.7h10.6c0.1-0.2,0.2-0.3,0.3-0.5c0.2-0.3,0.4-0.5,0.6-0.8l0,0c0.5-0.5,1-0.9,1.7-1.1
		c0.6-0.2,1.3-0.4,2-0.4c0.7,0,1.3,0.1,1.9,0.4l0,0c0.6,0.3,1.2,0.6,1.7,1.1c0.5,0.5,0.9,1,1.1,1.7c0.2,0.6,0.4,1.3,0.4,2
		c0,0.7-0.1,1.4-0.4,2c-0.3,0.6-0.7,1.2-1.1,1.7c-0.5,0.5-1.1,0.9-1.7,1.1l0,0c-0.6,0.2-1.3,0.4-2,0.4s-1.4-0.1-2-0.4
		c-0.6-0.3-1.2-0.6-1.6-1.1l0,0c-0.3-0.3-0.5-0.6-0.7-0.9c-0.1-0.2-0.2-0.4-0.3-0.5h-8.2v12.8c1.8,0.3,3.3,1.2,4.6,2.4
		c1.5,1.5,2.4,3.6,2.4,5.8v1h22.6V28.9c-0.1-0.1-0.3-0.2-0.4-0.2c-0.3-0.2-0.5-0.4-0.7-0.6c-0.5-0.5-0.9-1-1.1-1.7
		c-0.2-0.6-0.4-1.3-0.4-2c0-0.7,0.1-1.4,0.4-2c0.3-0.6,0.7-1.2,1.1-1.7c0.5-0.5,1-0.9,1.7-1.1c0.6-0.2,1.3-0.4,2-0.4
		c0.7,0,1.4,0.1,2,0.4c0.6,0.3,1.2,0.6,1.7,1.1c0.5,0.5,0.9,1,1.1,1.7c0.2,0.6,0.4,1.3,0.4,2c0,0.7-0.1,1.3-0.4,1.9l0,0
		c-0.3,0.6-0.7,1.2-1.1,1.7c-0.3,0.3-0.6,0.5-1,0.8c-0.2,0.1-0.4,0.2-0.6,0.3v17.1c0,0.6-0.3,1.2-0.7,1.6c-0.4,0.4-1,0.7-1.6,0.7
		l0,0H92.6v11.2h20.5c0.1-0.2,0.2-0.3,0.3-0.5c0.2-0.3,0.4-0.6,0.7-0.8c0.5-0.5,1-0.9,1.7-1.1c0.6-0.2,1.3-0.4,2-0.4
		c0.7,0,1.3,0.1,1.9,0.4l0,0c0.6,0.3,1.2,0.7,1.7,1.1c0.5,0.5,0.9,1,1.1,1.7c0.2,0.6,0.4,1.3,0.4,2c0,0.7-0.1,1.4-0.4,2
		c-0.3,0.6-0.7,1.2-1.1,1.7s-1,0.9-1.7,1.1c-0.6,0.2-1.3,0.4-2,0.4c-0.7,0-1.3-0.1-1.9-0.4l0,0c-0.6-0.3-1.2-0.7-1.7-1.1
		c-0.2-0.2-0.5-0.5-0.7-0.8l0,0c-0.1-0.2-0.2-0.3-0.3-0.5l0,0H92.6v14.9h10.7c0.6,0,1.2,0.3,1.6,0.7s0.7,1,0.7,1.6v10.6
		c0.2,0.1,0.3,0.2,0.5,0.3c0.3,0.2,0.5,0.4,0.8,0.6l0,0c0.5,0.5,0.9,1,1.1,1.7c0.2,0.6,0.4,1.3,0.4,2c0,0.7-0.1,1.3-0.4,1.9l0,0
		c-0.3,0.6-0.7,1.2-1.1,1.7c-0.5,0.5-1,0.9-1.7,1.1c-0.6,0.2-1.3,0.4-2,0.4c-0.7,0-1.4-0.1-2-0.4c-0.6-0.3-1.2-0.7-1.7-1.1
		C99.1,100,98.7,99.4,98.4,98.8L98.4,98.8L98.4,98.8z M53.5,52.1h17.8c1.4,0,2.5,1.1,2.5,2.5v16.4c0,1.4-1.1,2.5-2.5,2.5H53.5
		c-1.4,0-2.5-1.1-2.5-2.5V54.7C51,53.3,52.1,52.1,53.5,52.1L53.5,52.1z M84,39.1H40.8c-1,0-1.9,0.4-2.6,1.1
		c-0.7,0.7-1.2,1.7-1.2,2.8v39.8c0,1.1,0.4,2.1,1.2,2.8c0.7,0.7,1.6,1.1,2.6,1.1H84c1,0,1.9-0.4,2.6-1.1c0.7-0.7,1.2-1.7,1.2-2.8V43
		c0-1.1-0.4-2.1-1.2-2.8C85.9,39.5,85,39.1,84,39.1L84,39.1z"/>
</g>
</svg>
