<?xml version="1.0" encoding="utf-8"?>
<!-- Generator: Adobe Illustrator 28.1.0, SVG Export Plug-In . SVG Version: 6.00 Build 0)  -->
<svg version="1.1" id="Layer_1" transform="matrix(1, 0, 0, 1, 0, 0)"
	 xmlns="http://www.w3.org/2000/svg" xmlns:xlink="http://www.w3.org/1999/xlink" x="0px" y="0px" viewBox="0 0 800 800"
	 style="enable-background:new 0 0 800 800;" xml:space="preserve">
<style type="text/css">
	.st0{fill-rule:evenodd;clip-rule:evenodd;fill:#FFFFFF;}
</style>
<g id="SVGRepo_bgCarrier">
</g>
<g id="SVGRepo_tracerCarrier">
</g>
<g id="SVGRepo_iconCarrier">
	<path class="st0" d="M798,399c0,220.4-178.6,399-399,399C178.6,798,0,619.4,0,399C0,178.6,178.6,0,399,0C619.4,0,798,178.6,798,399
		z M199.7,279.3c0-21.9,17.8-39.9,39.7-39.9h319.2c21.9,0,39.9,18,39.9,39.9v239.4c0,21.9-18,39.9-39.9,39.9H239.4
		c-21.9,0-39.9-18-39.9-39.9L199.7,279.3z M399,419l-159.6-99.8v199.5h319.2V319.2L399,419z M399,379l-159.6-99.7h319.2L399,379z"/>
</g>
</svg>
