<?xml version="1.0" encoding="utf-8"?>
<!-- Generator: Adobe Illustrator 28.1.0, SVG Export Plug-In . SVG Version: 6.00 Build 0)  -->
<svg version="1.1" id="Layer_1" xmlns="http://www.w3.org/2000/svg" xmlns:xlink="http://www.w3.org/1999/xlink" x="0px" y="0px"
	 viewBox="0 0 122.9 97.4" style="enable-background:new 0 0 122.9 97.4;" xml:space="preserve">
<style type="text/css">
	.st0{fill-rule:evenodd;clip-rule:evenodd;fill:#FFFFFF;}
</style>
<g>
	<path class="st0" d="M10.1,0h11.2v19h93.7c2.2,0,3.8,0.9,5.2,2.3s2.8,3.4,2.8,5.6v49.4c0,2.2-0.9,4.2-2.3,5.6
		c-1.4,1.4-3.4,2.3-5.6,2.3h-2.8v6.1c0,0.7-0.3,1.4-0.8,1.9l0,0c-0.5,0.5-1.2,0.8-1.9,0.8H62.3c-0.8,0-1.4-0.3-1.9-0.8
		c0-0.1-0.1-0.1-0.1-0.2c-0.4-0.5-0.7-1.1-0.7-1.8v-6.1h-6.6v6.1c0,0.8-0.3,1.4-0.8,1.9c0,0.1-0.1,0.1-0.2,0.1
		c-0.5,0.4-1.1,0.7-1.8,0.7H28c-0.8,0-1.4-0.3-1.9-0.8c0-0.1-0.1-0.1-0.1-0.2c-0.4-0.5-0.7-1.1-0.7-1.8v-6.1h-4v13.2H10.1V75.5H6.4
		c-0.3,0-0.6-0.3-0.6-0.6V58c0-0.3,0.3-0.6,0.6-0.6h3.7V42H6.4c-0.3,0-0.6-0.3-0.6-0.6V24.5c0-0.3,0.3-0.6,0.6-0.6h3.7v-15H4.4
		C2,8.9,0,6.9,0,4.4l0,0C0,2,2,0,4.4,0H10.1L10.1,0z M37.3,69h3.1v-3.8h-3.1V69L37.3,69L37.3,69z M91.9,30.2
		c5.9,0,11.3,2.4,15.1,6.3c3.9,3.9,6.3,9.2,6.3,15.1s-2.4,11.3-6.3,15.1c-3.9,3.9-9.2,6.3-15.1,6.3c-5.9,0-11.3-2.4-15.1-6.3
		c-3.9-3.9-6.3-9.2-6.3-15.1s2.4-11.3,6.3-15.1C80.7,32.6,86,30.2,91.9,30.2L91.9,30.2z M105.3,38.3c-3.4-3.4-8.1-5.5-13.3-5.5
		c-5.2,0-9.9,2.1-13.3,5.5c-3.4,3.4-5.5,8.1-5.5,13.3s2.1,9.9,5.5,13.3c3.4,3.4,8.1,5.5,13.3,5.5s9.9-2.1,13.3-5.5
		c3.4-3.4,5.5-8.1,5.5-13.3S108.7,41.7,105.3,38.3L105.3,38.3z M98.2,53.8c-0.3,0.7-0.7,1.4-1.3,2c-0.6,0.6-1.4,1.2-2.3,1.6
		c0,0.2,0,0.5,0,0.7c0,0.4-0.1,0.8-0.2,1.2c-0.3,1.7-0.8,2.9-1.4,4.2c-0.4,0.8-0.7,1.6-1,2.5c-0.1,0.3-0.1,0.6-0.1,0.9
		c0,0.4,0.2,0.8,0.5,1.1c0.3,0.3,0.8,0.6,1.3,0.7c0.6,0.2,1.2,0.2,1.8,0.2c0.5,0,1.1-0.1,1.6-0.3c0.6-0.2,1.1-0.3,1.6-0.6
		c0.5-0.2,0.9-0.4,1.3-0.7c0.4-0.2,0.8-0.5,1.2-0.8c1.3-1,2.3-2.1,2.9-3.2c0.5-1,0.7-2,0.6-3c-0.1-1-0.5-2-1.2-2.9
		c-0.9-1.2-2.2-2.3-4-3.2c-0.3-0.2-0.6-0.3-0.9-0.3C98.4,53.8,98.3,53.8,98.2,53.8L98.2,53.8L98.2,53.8z M94.1,46.1
		c0.7,0.3,1.4,0.7,2,1.2c0.7,0.6,1.2,1.3,1.7,2.2c0.2,0,0.5,0,0.7,0c0.4,0,0.8,0,1.2,0.1c1.7,0.2,2.9,0.7,4.2,1.2
		c0.8,0.3,1.6,0.7,2.5,0.9c0,0,0,0,0,0c0.3,0.1,0.6,0.1,0.8,0.1c0.4,0,0.8-0.2,1.1-0.5c0.3-0.3,0.5-0.8,0.6-1.3
		c0.1-0.6,0.2-1.2,0.1-1.8c-0.1-0.5-0.2-1.1-0.3-1.6c-0.2-0.5-0.4-1.1-0.6-1.6c-0.2-0.5-0.5-0.9-0.7-1.3s-0.6-0.8-0.9-1.2
		c-1.1-1.3-2.2-2.2-3.3-2.7c-1-0.5-2-0.6-3-0.5c-1,0.2-2,0.6-2.9,1.3c-1.2,0.9-2.2,2.3-3,4.1c-0.1,0.3-0.2,0.6-0.3,0.9
		C94.2,45.8,94.1,45.9,94.1,46.1L94.1,46.1L94.1,46.1z M86.4,49.6c0.3-0.7,0.7-1.4,1.2-2c0.6-0.7,1.3-1.2,2.2-1.7c0-0.2,0-0.5,0-0.7
		c0-0.4,0-0.8,0.1-1.2c0.2-1.7,0.7-3,1.2-4.2c0.3-0.8,0.7-1.6,0.9-2.5c0.1-0.3,0.1-0.6,0.1-0.9c-0.1-0.4-0.2-0.8-0.6-1
		c-0.3-0.3-0.8-0.5-1.3-0.6c-0.6-0.1-1.2-0.2-1.8-0.1c-0.5,0.1-1.1,0.2-1.6,0.3c-0.5,0.2-1.1,0.4-1.6,0.6c-0.4,0.2-0.9,0.5-1.3,0.7
		c-0.4,0.3-0.8,0.6-1.2,0.9c-1.3,1.1-2.2,2.2-2.7,3.3c-0.5,1-0.6,2-0.5,3c0.2,1,0.6,2,1.3,2.9c0.9,1.2,2.3,2.2,4.1,3
		c0.3,0.1,0.6,0.2,0.9,0.3C86.2,49.5,86.3,49.5,86.4,49.6L86.4,49.6L86.4,49.6z M95.6,48.4c-0.9-0.8-2-1.4-3.3-1.4s-2.5,0.5-3.3,1.4
		c-0.8,0.8-1.4,2-1.4,3.3s0.5,2.5,1.4,3.3c0.8,0.8,2,1.4,3.3,1.4s2.5-0.5,3.3-1.4c0.8-0.8,1.4-2,1.4-3.3
		C96.9,50.4,96.4,49.2,95.6,48.4L95.6,48.4L95.6,48.4z M89.8,57.1c-0.7-0.3-1.4-0.7-2.1-1.2c-0.7-0.6-1.2-1.3-1.8-2.2
		c-0.2,0-0.5,0-0.7,0c-0.4,0-0.8,0-1.2-0.1c-1.7-0.2-3-0.7-4.2-1.2c-0.8-0.3-1.6-0.6-2.5-0.8c-0.3-0.1-0.6-0.1-0.9-0.1
		c-0.4,0.1-0.8,0.3-1,0.6c-0.3,0.3-0.5,0.8-0.6,1.3c-0.1,0.6-0.2,1.2-0.1,1.8c0.1,0.5,0.2,1.1,0.4,1.6c0.2,0.5,0.4,1.1,0.7,1.5
		c0.2,0.4,0.5,0.9,0.7,1.3c0.3,0.4,0.6,0.8,0.9,1.2c1.1,1.3,2.2,2.2,3.3,2.7c1,0.5,2.1,0.6,3,0.4c1-0.2,1.9-0.6,2.8-1.4
		c1.1-1,2.2-2.3,3-4.2c0.1-0.3,0.2-0.6,0.3-0.9C89.8,57.4,89.8,57.2,89.8,57.1L89.8,57.1L89.8,57.1z M35.6,39.7h21.2
		c0.7,0,1.3,0.6,1.3,1.3v21.3c0,0.7-0.6,1.3-1.3,1.3H35.6c-0.7,0-1.3-0.6-1.3-1.3V41C34.3,40.3,34.8,39.7,35.6,39.7L35.6,39.7
		L35.6,39.7L35.6,39.7z M41.2,45.9h10c0.4,0,0.8,0.4,0.8,0.8v10c0,0.4-0.4,0.8-0.8,0.8h-10c-0.4,0-0.8-0.4-0.8-0.8v-10
		C40.4,46.2,40.7,45.9,41.2,45.9L41.2,45.9L41.2,45.9z M64,52.8v2.6h-3.8v-2.6H64L64,52.8L64,52.8z M64,47.8v2.6h-3.8v-2.6H64
		L64,47.8L64,47.8L64,47.8z M64,57.8v3.1h-3.8v-3.1H64L64,57.8L64,57.8z M64,42.3v3.1h-3.8v-3.1H64L64,42.3L64,42.3z M29.1,52.8v2.6
		H33v-2.6H29.1L29.1,52.8L29.1,52.8z M29.1,47.8v2.6H33v-2.6H29.1L29.1,47.8L29.1,47.8z M29.1,57.8v3.1H33v-3.1H29.1L29.1,57.8
		L29.1,57.8z M29.1,42.3v3.1H33v-3.1H29.1L29.1,42.3L29.1,42.3z M47.8,34.2h2.6V38h-2.6V34.2L47.8,34.2L47.8,34.2L47.8,34.2z
		 M42.8,34.2h2.6V38h-2.6V34.2L42.8,34.2L42.8,34.2L42.8,34.2z M52.7,34.2h3.1V38h-3.1V34.2L52.7,34.2L52.7,34.2L52.7,34.2z
		 M37.3,34.2h3.1V38h-3.1V34.2L37.3,34.2L37.3,34.2L37.3,34.2z M47.8,69h2.6v-3.8h-2.6V69L47.8,69L47.8,69z M42.8,69h2.6v-3.8h-2.6
		V69L42.8,69L42.8,69z M52.7,69h3.1v-3.8h-3.1V69L52.7,69L52.7,69z M21.2,24.3v54.9h91.6c1.4,0,2.7-0.6,3.6-1.5s1.5-2.2,1.5-3.6
		V29.4c0-1.4-0.6-2.7-1.5-3.6c-0.9-0.9-2.2-1.5-3.6-1.5l0,0H21.2L21.2,24.3z M108.6,84.3h-6.4c0.1,0.2,0.2,0.5,0.2,0.7v4.7h6.3V84.3
		L108.6,84.3z M99.1,84.3h-7.3c0.1,0.2,0.2,0.5,0.2,0.7v4.7h7V85C98.9,84.7,98.9,84.5,99.1,84.3L99.1,84.3z M88.6,84.3h-7.3
		c0.1,0.2,0.2,0.5,0.2,0.7v4.7h7V85C88.4,84.7,88.5,84.5,88.6,84.3L88.6,84.3z M78.1,84.3h-7.3c0.1,0.2,0.2,0.5,0.2,0.7v4.7h7V85
		C77.9,84.7,78,84.5,78.1,84.3L78.1,84.3z M67.6,84.3H63v5.4h4.4V85C67.4,84.7,67.5,84.5,67.6,84.3L67.6,84.3z M49.4,84.3H45
		c0.1,0.2,0.2,0.5,0.2,0.7v4.7h4.2V84.3L49.4,84.3z M41.9,84.3h-6.3c0.1,0.2,0.2,0.5,0.2,0.7v4.7h6V85
		C41.7,84.7,41.8,84.5,41.9,84.3L41.9,84.3z M32.5,84.3h-3.8v5.4h3.6V85C32.3,84.7,32.4,84.5,32.5,84.3L32.5,84.3z"/>
</g>
</svg>
