<!DOCTYPE svg PUBLIC "-//W3C//DTD SVG 1.1//EN" "http://www.w3.org/Graphics/SVG/1.1/DTD/svg11.dtd">
<!-- Uploaded to: SVG Repo, www.svgrepo.com, Transformed by: SVG Repo Mixer Tools -->
<svg width="800px" height="800px" viewBox="0 -0.5 21 21" version="1.1" xmlns="http://www.w3.org/2000/svg" xmlns:xlink="http://www.w3.org/1999/xlink" fill="#ffffff">
<g id="SVGRepo_bgCarrier" stroke-width="0"/>
<g id="SVGRepo_tracerCarrier" stroke-linecap="round" stroke-linejoin="round"/>
<g id="SVGRepo_iconCarrier"> <title>important_message [#]</title> <desc>Created with Sketch.</desc> <defs> </defs> <g id="Page-1" stroke="none" stroke-width="1" fill="none" fill-rule="evenodd"> <g id="Dribbble-Light-Preview" transform="translate(-99.000000, -520.000000)" fill="#fff"> <g id="icons" transform="translate(56.000000, 160.000000)"> <path d="M52.45,371.512 L52.45,364.512 C52.45,363.96 52.9204,363.512 53.5,363.512 C54.0796,363.512 54.55,363.96 54.55,364.512 L54.55,371.512 C54.55,372.064 54.0796,372.512 53.5,372.512 C52.9204,372.512 52.45,372.064 52.45,371.512 L52.45,371.512 Z M54.55,374.512 C54.55,375.064 54.0796,375.512 53.5,375.512 C52.9204,375.512 52.45,375.064 52.45,374.512 C52.45,373.96 52.9204,373.512 53.5,373.512 C54.0796,373.512 54.55,373.96 54.55,374.512 L54.55,374.512 Z M45.1,378 L61.9,378 L61.9,362 L45.1,362 L45.1,378 Z M43,380 L64,380 L64,360 L43,360 L43,380 Z" id="important_message-[#]"> </path> </g> </g> </g> </g>
</svg>