<?xml version="1.0" encoding="utf-8"?>
<!-- Generator: Adobe Illustrator 28.1.0, SVG Export Plug-In . SVG Version: 6.00 Build 0)  -->
<svg version="1.1"
	 id="Layer_1" shape-rendering="geometricPrecision" text-rendering="geometricPrecision" image-rendering="optimizeQuality"
	 xmlns="http://www.w3.org/2000/svg" xmlns:xlink="http://www.w3.org/1999/xlink" x="0px" y="0px" viewBox="0 0 512 512.1"
	 style="enable-background:new 0 0 512 512.1;" xml:space="preserve">
<style type="text/css">
	.st0{fill-rule:evenodd;clip-rule:evenodd;fill:#FFFFFF;}
</style>
<path class="st0" d="M370.4,0c1,0,2,0.2,3,0.6c0.9,0.4,1.7,0.9,2.4,1.6c4.5,3.2,26.4,25.7,40.6,40.3c4.7,4.9,8.5,8.8,10.9,11.1
	l1.8,1.7l-4.8,4.8c-1.5,1.5-2.6,3.3-3.3,5.3c-0.8,2.2-1,4.5-0.9,6.9c0.1,2.6,0.7,5.2,1.8,7.6c1,2.3,2.4,4.4,4.2,6.2
	c1.8,1.8,3.9,3.2,6.2,4.2c2.4,1,5,1.6,7.6,1.8c2.4,0.1,4.8-0.2,6.9-0.9c2-0.7,3.8-1.8,5.2-3.2l4.8-4.8l53,53
	c0.8,0.8,1.3,1.6,1.7,2.6c0.4,1,0.6,2,0.6,3.1s-0.2,2.1-0.6,3.1c-0.4,1-1,1.9-1.7,2.6L169.3,487.6c-0.8,0.8-1.7,1.3-2.6,1.7
	c-1,0.4-2,0.6-3.1,0.6s-2.1-0.2-3.1-0.6c-0.9-0.4-1.8-1-2.6-1.7l-4.8-4.8L126,510.1c-1.3,1.3-3,2-4.9,2c-1.8,0-3.5-0.7-4.9-2
	l-75.7-75.7c-1.9-1.9-1.9-5,0-7l4.2-4.2c1.2-1.2,1.8-2.8,1.8-4.4c0-1.6-0.6-3.2-1.8-4.4c-1.2-1.2-2.7-1.8-4.4-1.8
	c-1.6,0-3.2,0.6-4.4,1.8l-4.2,4.2c-1.9,1.9-5,1.9-7,0c0,0,0,0,0,0L1.8,395.6c-2.3-2.4-2.3-6.2,0-8.5l27.8-27.8l-5.2-5.2
	c-0.7-0.7-1.3-1.6-1.7-2.6c-0.4-1-0.6-2-0.6-3.1c0-1,0.2-2,0.6-3c0.4-0.9,1-1.8,1.7-2.6L364.7,2.3c0.8-0.8,1.6-1.3,2.6-1.7
	C368.2,0.2,369.3,0,370.4,0L370.4,0z M63.7,343.2c2.6-2.7,6.9-2.7,9.6,0c0,0,0,0,0,0c2.7,2.7,2.7,7,0,9.6c0,0,0,0,0,0
	c-2.7,2.7-7,2.7-9.6,0c0,0,0,0,0,0C61,350.2,61,345.9,63.7,343.2C63.7,343.2,63.7,343.2,63.7,343.2z M146.3,475.9L36.6,366.2
	l-25.1,25.1l5.9,5.9l17.3-17.4l7,7l-17.3,17.3l4,4l0.7-0.7c3.2-3.1,7.3-4.7,11.4-4.7s8.2,1.6,11.4,4.7s4.7,7.3,4.7,11.4
	c0,4.1-1.6,8.2-4.7,11.4l-0.7,0.7l6.4,6.4L74.8,420l7,7l-17.3,17.3l9,9L90.8,436l7,7l-17.3,17.4l8.5,8.5l17.3-17.3l7,7L96,475.8
	l8.5,8.5l17.3-17.4l7,7l-17.3,17.4l9.7,9.7L146.3,475.9L146.3,475.9z M191.2,358.8l-21.9-4c-0.7-0.1-1.9-0.9-3.4-2.2l-0.2,0.2
	l15.7,15.7l-11.7,11.7l-36.4-36.4l11-11l21.9,4c0.7,0.1,1.9,0.9,3.4,2.2l0.2-0.2l-15.7-15.8l11.7-11.7l36.4,36.4L191.2,358.8z
	 M335.2,214.7l-5-7.1c2.8-1.7,5.1-3.4,6.9-5.2c1.8-1.8,3.2-3.3,4.1-4.6l-1.8-1.8l-3.6,3c-3.3,2.7-6,4.1-8.3,4s-4.5-1.2-6.8-3.5
	c-3.1-3.1-4.6-6-4.4-8.5c0.2-2.5,1.9-5.4,5.2-8.7c3.2-3.3,6.5-5.9,9.7-7.9l5,6.8c-2.6,1.9-4.6,3.6-6,4.9s-2.5,2.6-3.3,3.7l1.8,1.8
	l2.9-2.4c3.5-2.9,6.5-4.3,8.9-4.4c2.4,0,4.7,1.1,6.9,3.2c1.5,1.5,2.6,3.1,3.3,4.5s1,2.8,0.9,3.9c0,1.1-0.4,2.4-1.2,3.7
	c-0.8,1.4-1.5,2.4-2.2,3.3s-1.8,1.9-3.1,3.3C341.8,210,338.5,212.7,335.2,214.7L335.2,214.7z M357.2,192.7l-5-7.1
	c2.8-1.7,5.1-3.4,6.9-5.2c1.8-1.8,3.2-3.3,4.1-4.6l-1.8-1.8l-3.6,3c-3.2,2.7-6,4.1-8.3,4c-2.3-0.1-4.6-1.2-6.8-3.5
	c-3.1-3.1-4.6-6-4.4-8.5c0.2-2.5,1.9-5.4,5.2-8.7c3.3-3.3,6.5-5.9,9.7-7.9l5,6.8c-2.6,1.9-4.6,3.6-6,4.9c-1.4,1.4-2.5,2.6-3.3,3.7
	l1.8,1.8l2.9-2.4c3.5-2.9,6.5-4.3,9-4.4c2.4,0,4.7,1.1,6.9,3.2c1.5,1.6,2.6,3.1,3.3,4.5c0.6,1.5,1,2.8,0.9,3.9
	c0,1.1-0.4,2.4-1.2,3.7c-0.8,1.3-1.5,2.4-2.2,3.3c-0.7,0.9-1.8,1.9-3.1,3.3C363.8,188,360.5,190.6,357.2,192.7L357.2,192.7z
	 M380.5,170.2l-22.9-22.9l10.3-10.3c4.1-4.1,7.9-6.1,11.2-5.9c3.3,0.2,7,2.4,11.1,6.5c4.1,4.1,6.3,7.9,6.5,11.1
	c0.2,3.3-1.7,7-5.9,11.2L380.5,170.2L380.5,170.2z M373.8,142.7l-3,3.1L382,157l3-3c1-1,1.6-1.9,1.8-2.5c0.2-0.7-0.1-1.4-0.9-2.3
	l-7.3-7.3c-0.8-0.8-1.6-1.1-2.3-0.9C375.7,141.1,374.8,141.7,373.8,142.7L373.8,142.7z M192.3,284.8l12.3-12.3L232,318l-17,17
	l-45.5-27.4l12.3-12.3l28.1,18.2l0.5-0.5L192.3,284.8L192.3,284.8z M255.6,294.5l-12.2,12.2L209.2,268l15.2-15.2l23.1,14l0.4-0.4
	l-14-23.1l15.2-15.2l38.7,34.2l-12.2,12.2l-18.4-17l-0.4,0.4l13.2,22.1l-8.9,8.9L239,275.8l-0.4,0.4L255.6,294.5L255.6,294.5z
	 M294.5,235.8l2,2c1.3-1.1,2.5-2.2,3.7-3.3c3.6-3.6,6.7-7.9,9.2-12.7l10,7.2c-3.2,5.5-6.9,10.4-11.2,14.7c-5.4,5.4-10.6,8.1-15.6,8
	c-5-0.1-10.1-2.8-15.3-8s-7.9-10.3-8-15.3c-0.1-5,2.5-10.2,8-15.6c5.4-5.4,9.9-8.4,13.4-9c3.5-0.6,7.3,1.1,11.4,5.2
	c3.4,3.4,4.6,7.1,3.7,11.1C304.8,224,301,229.2,294.5,235.8z M285.3,226.6l2.4,2.4l2.4-2.4c1.4-1.4,2.3-2.6,2.6-3.5
	c0.4-0.9,0-1.9-1-3l-2.4-2.4l-2.4,2.4c-1.4,1.4-2.3,2.6-2.6,3.5S284.3,225.6,285.3,226.6z M93,331L353,71c1.2-1.2,3.3-1.2,4.5,0
	l85.3,85.3c1.2,1.2,1.2,3.3,0,4.5l-260,260c-1.2,1.2-3.3,1.3-4.5,0c0,0,0,0,0,0L93,335.5C91.8,334.3,91.8,332.2,93,331z M68.5,332
	c-4.1,0-8.2,1.6-11.4,4.7c-3.1,3.1-4.7,7.2-4.7,11.4s1.6,8.2,4.7,11.4c3.1,3.1,7.2,4.7,11.4,4.7s8.2-1.6,11.3-4.7
	c3.1-3.1,4.7-7.2,4.7-11.4c0-4.1-1.6-8.2-4.7-11.4C76.8,333.7,72.8,332,68.5,332z"/>
</svg>
