<?xml version="1.0" encoding="utf-8"?>
<!-- Generator: Adobe Illustrator 28.1.0, SVG Export Plug-In . SVG Version: 6.00 Build 0)  -->
<svg version="1.1" id="Layer_1" xmlns="http://www.w3.org/2000/svg" xmlns:xlink="http://www.w3.org/1999/xlink" x="0px" y="0px"
	 viewBox="0 0 122.9 106.3" style="enable-background:new 0 0 122.9 106.3;" xml:space="preserve">
<style type="text/css">
	.st0{fill:#FFFFFF;}
</style>
<g>
	<path class="st0" d="M58.2,53l28.6-18.2c0.2-0.2,0.5-0.1,0.7,0.1l2.8,2.9c0.2,0.2,0.2,0.5,0,0.7L68.5,63.6c-3.1,3.3-6.4,4-9,3.1
		c-1.3-0.4-2.5-1.2-3.3-2.2c-0.9-1-1.5-2.3-1.7-3.6C53.9,58.2,54.9,55.2,58.2,53L58.2,53L58.2,53z M19.3,106.2
		c-3-2.9-5.8-6.1-8.2-9.5C8.7,93.3,6.7,89.6,5,85.8C3.4,82,2.1,78,1.3,73.9C0.4,69.9,0,65.7,0,61.4c0-8.3,1.7-16.2,4.7-23.5
		C7.8,30.4,12.3,23.7,18,18c5.7-5.7,12.4-10.2,20-13.3C45.2,1.7,53.1,0,61.4,0c8.3,0,16.2,1.7,23.4,4.7c7.5,3.1,14.3,7.7,19.9,13.4
		c5.7,5.7,10.3,12.5,13.4,20c3,7.2,4.7,15.2,4.7,23.4c0,4.1-0.4,8-1.2,11.8c-0.8,3.9-1.9,7.8-3.5,11.4c-1.5,3.7-3.4,7.2-5.6,10.6
		c-2.2,3.3-4.8,6.4-7.6,9.3c-0.2,0.2-0.5,0.2-0.7,0l-3.1-3.1c-0.1,0-0.1-0.1-0.2-0.1l-8.6-8.6c-0.2-0.2-0.2-0.5,0-0.7l4.5-4.5
		c0.2-0.2,0.5-0.2,0.7,0l6.6,6.6c1.4-1.8,2.7-3.7,3.8-5.7c1.2-2.1,2.3-4.3,3.3-6.6c1.3-3.1,2.3-6.3,3-9.7c0.6-3.1,1-6.3,1.1-9.6
		h-9.1c-0.3,0-0.5-0.2-0.5-0.5v-6.4c0-0.3,0.2-0.5,0.5-0.5h8.8c-0.7-5.8-2.3-11.4-4.7-16.6c-2.5-5.3-5.8-10.1-9.8-14.4l-5.9,5.9
		c-0.2,0.2-0.5,0.2-0.7,0l-4.5-4.5c-0.2-0.2-0.2-0.5,0-0.7l5.7-5.6c-4.4-3.6-9.4-6.5-14.9-8.5c-5.2-2-10.9-3.2-16.8-3.4v8
		c0,0.3-0.2,0.5-0.5,0.5h-6.4c-0.3,0-0.5-0.2-0.5-0.5V7.6c-5.8,0.6-11.4,2-16.5,4.3c-5.3,2.3-10.2,5.5-14.4,9.3l5.9,5.9
		c0.2,0.2,0.2,0.5,0,0.7l-4.5,4.5c-0.2,0.2-0.5,0.2-0.7,0l-5.8-5.8c-3.7,4.4-6.8,9.4-9,14.9c-2.1,5.3-3.4,11-3.8,16.9h9
		c0.3,0,0.5,0.2,0.5,0.5v6.4c0,0.3-0.2,0.5-0.5,0.5h-9c0.2,2.9,0.7,5.8,1.4,8.6c0.7,3,1.7,5.9,2.9,8.7c1.1,2.4,2.3,4.8,3.6,7
		c1.3,2.1,2.7,4.1,4.3,6l7.2-7.2c0.2-0.2,0.5-0.2,0.7,0l4.5,4.5c0.2,0.2,0.2,0.5,0,0.7C28,97.9,24,101.9,20,106.2
		C19.8,106.3,19.5,106.4,19.3,106.2L19.3,106.2z"/>
</g>
</svg>
