<?xml version="1.0" encoding="utf-8"?>
<!-- Generator: Adobe Illustrator 28.1.0, SVG Export Plug-In . SVG Version: 6.00 Build 0)  -->
<svg version="1.1" id="Layer_1" xmlns="http://www.w3.org/2000/svg" xmlns:xlink="http://www.w3.org/1999/xlink" x="0px" y="0px"
	 viewBox="0 0 122.9 116.9" style="enable-background:new 0 0 122.9 116.9;" xml:space="preserve">
<style type="text/css">
	.st0{fill-rule:evenodd;clip-rule:evenodd;fill:#FFFFFF;}
</style>
<path class="st0" d="M61.4,8.2L80.4,0l10.4,17.8l20.3,4.5l-2,20.5l13.7,15.6l-13.7,15.4l2,20.7L91,99l-10.6,17.9l-18.9-8.2
	l-19.1,8.2L32,99.1l-20.3-4.5l2-20.5L0,58.4L13.7,43l-2-20.7l20.1-4.5L42.5,0L61.4,8.2z M37.4,64.6c-6.1-6.5,3.2-16.3,10-10.1
	c2.4,2.2,5.8,5.3,8.2,7.5l18.5-22.8c6.4-6.7,16.6,3.1,10.2,9.8L61.2,76.7c-2.6,2.8-7,3-9.9,0.4C47.3,73.4,41.6,68,37.4,64.6z"/>
</svg>
